<?xml version="1.0" encoding="UTF-8" standalone="no"?>
<!-- Created with Inkscape (http://www.inkscape.org/) -->

<svg
   xmlns:dc="http://purl.org/dc/elements/1.1/"
   xmlns:cc="http://creativecommons.org/ns#"
   xmlns:rdf="http://www.w3.org/1999/02/22-rdf-syntax-ns#"
   xmlns:svg="http://www.w3.org/2000/svg"
   xmlns="http://www.w3.org/2000/svg"
   xmlns:sodipodi="http://sodipodi.sourceforge.net/DTD/sodipodi-0.dtd"
   xmlns:inkscape="http://www.inkscape.org/namespaces/inkscape"
   width="700"
   height="2363.8613"
   viewBox="0 0 700.00001 2363.8614"
   id="svg2"
   version="1.1"
   inkscape:version="0.91 r13725"
   sodipodi:docname="stars.svg">
  <defs
     id="defs4" />
  <sodipodi:namedview
     id="base"
     pagecolor="#ffffff"
     bordercolor="#666666"
     borderopacity="1.0"
     inkscape:pageopacity="0.0"
     inkscape:pageshadow="2"
     inkscape:zoom="0.35"
     inkscape:cx="-371.22116"
     inkscape:cy="1204.4182"
     inkscape:document-units="px"
     inkscape:current-layer="layer1"
     showgrid="false"
     units="px"
     fit-margin-top="0"
     fit-margin-left="0"
     fit-margin-right="0"
     fit-margin-bottom="0"
     inkscape:window-width="1920"
     inkscape:window-height="1027"
     inkscape:window-x="0"
     inkscape:window-y="0"
     inkscape:window-maximized="1" />
  <metadata
     id="metadata7">
    <rdf:RDF>
      <cc:Work
         rdf:about="">
        <dc:format>image/svg+xml</dc:format>
        <dc:type
           rdf:resource="http://purl.org/dc/dcmitype/StillImage" />
        <dc:title></dc:title>
      </cc:Work>
    </rdf:RDF>
  </metadata>
  <g
     inkscape:label="Layer 1"
     inkscape:groupmode="layer"
     id="layer1"
     transform="translate(-88.694355,229.13078)">
    <path
       sodipodi:type="star"
       style="fill:#ffe680;fill-opacity:1;stroke:none;stroke-width:0;stroke-miterlimit:4;stroke-dasharray:none;stroke-opacity:1"
       id="path4136"
       sodipodi:sides="5"
       sodipodi:cx="199.14285"
       sodipodi:cy="129.50507"
       sodipodi:r1="18.070158"
       sodipodi:r2="9.035079"
       sodipodi:arg1="1.8925469"
       sodipodi:arg2="2.5208654"
       inkscape:flatsided="false"
       inkscape:rounded="0"
       inkscape:randomized="0"
       d="m 193.42857,146.64792 -1.63535,-11.88781 -10.72,-5.39222 10.80063,-5.22885 1.81564,-11.86161 8.31051,8.65621 11.84213,-1.93866 -5.66446,10.57867 5.5032,10.66346 -11.81133,-2.11823 z"
       inkscape:transform-center-x="1.6851823"
       inkscape:transform-center-y="-0.042389244" />
    <path
       sodipodi:type="star"
       style="fill:#ffe680;fill-opacity:1;stroke:none;stroke-width:0;stroke-miterlimit:4;stroke-dasharray:none;stroke-opacity:1"
       id="path4138"
       sodipodi:sides="5"
       sodipodi:cx="742"
       sodipodi:cy="483.79077"
       sodipodi:r1="15.386185"
       sodipodi:r2="7.6930928"
       sodipodi:arg1="1.9513027"
       sodipodi:arg2="2.5796212"
       inkscape:flatsided="false"
       inkscape:rounded="0"
       inkscape:randomized="0"
       d="m 736.28571,498.07649 -0.79565,-10.18641 -8.84239,-5.11939 9.44197,-3.90449 2.13638,-9.99159 6.63112,7.7733 10.16275,-1.05575 -5.34372,8.70865 4.14454,9.3391 -9.93372,-2.39106 z"
       inkscape:transform-center-x="1.1662233"
       inkscape:transform-center-y="-0.31522211" />
    <path
       sodipodi:type="star"
       style="fill:#ffe680;fill-opacity:1;stroke:none;stroke-width:0;stroke-miterlimit:4;stroke-dasharray:none;stroke-opacity:1"
       id="path4140"
       sodipodi:sides="5"
       sodipodi:cx="276.28571"
       sodipodi:cy="912.36218"
       sodipodi:r1="16.659863"
       sodipodi:r2="8.3299313"
       sodipodi:arg1="-2.1112158"
       sodipodi:arg2="-1.4828973"
       inkscape:flatsided="false"
       inkscape:rounded="0"
       inkscape:randomized="0"
       d="m 267.71428,898.07647 9.30268,5.98794 10.20655,-4.26867 -2.82019,10.69775 7.21375,8.38792 -11.04565,0.62363 -5.74822,9.45269 -4.0064,-10.31233 -10.76633,-2.54583 8.56955,-6.997 z"
       inkscape:transform-center-x="0.4519376"
       inkscape:transform-center-y="1.1549153" />
    <path
       sodipodi:type="star"
       style="fill:#ffe680;fill-opacity:1;stroke:none;stroke-width:0;stroke-miterlimit:4;stroke-dasharray:none;stroke-opacity:1"
       id="path4142"
       sodipodi:sides="5"
       sodipodi:cx="284.85715"
       sodipodi:cy="443.79077"
       sodipodi:r1="16.162441"
       sodipodi:r2="8.0812206"
       sodipodi:arg1="0.78539816"
       sodipodi:arg2="1.4137167"
       inkscape:flatsided="false"
       inkscape:rounded="0"
       inkscape:randomized="0"
       d="m 296.28572,455.21934 -10.16439,-3.44684 -8.60178,6.41911 0.13718,-10.73204 -8.76304,-6.19716 10.24917,-3.18592 3.18592,-10.24917 6.19716,8.76303 10.73205,-0.13717 -6.41912,8.60177 z"
       inkscape:transform-center-x="0.78130706"
       inkscape:transform-center-y="-0.78130706" />
    <path
       sodipodi:type="star"
       style="fill:#ffe680;fill-opacity:1;stroke:none;stroke-width:0;stroke-miterlimit:4;stroke-dasharray:none;stroke-opacity:1"
       id="path4144"
       sodipodi:sides="5"
       sodipodi:cx="613.42859"
       sodipodi:cy="192.3622"
       sodipodi:r1="17.379322"
       sodipodi:r2="8.689661"
       sodipodi:arg1="1.735945"
       sodipodi:arg2="2.3642635"
       inkscape:flatsided="false"
       inkscape:rounded="0"
       inkscape:randomized="0"
       d="m 610.57145,209.50506 -3.33676,-11.04812 -10.99283,-3.51461 9.47627,-6.5875 -0.0544,-11.54088 9.19341,6.97682 10.95922,-3.61805 -3.79443,10.89941 6.82756,9.30481 -11.5385,-0.24062 z"
       inkscape:transform-center-x="0.8829057"
       inkscape:transform-center-y="0.79730397" />
    <path
       sodipodi:type="star"
       style="fill:#ffe680;fill-opacity:1;stroke:none;stroke-width:0;stroke-miterlimit:4;stroke-dasharray:none;stroke-opacity:1"
       id="path4146"
       sodipodi:sides="5"
       sodipodi:cx="679.14288"
       sodipodi:cy="809.50507"
       sodipodi:r1="15.386185"
       sodipodi:r2="7.6930928"
       sodipodi:arg1="-1.9513027"
       sodipodi:arg2="-1.3229842"
       inkscape:flatsided="false"
       inkscape:rounded="0"
       inkscape:randomized="0"
       d="m 673.4286,795.21935 7.60127,6.82764 9.93372,-2.39106 -4.14454,9.3391 5.34372,8.70865 -10.16274,-1.05576 -6.63112,7.7733 -2.13638,-9.99159 -9.44198,-3.90448 8.84239,-5.11939 z"
       inkscape:transform-center-x="1.1662233"
       inkscape:transform-center-y="0.31522211" />
    <path
       sodipodi:type="star"
       style="fill:#ffe680;fill-opacity:1;stroke:none;stroke-width:0;stroke-miterlimit:4;stroke-dasharray:none;stroke-opacity:1"
       id="path4148"
       sodipodi:sides="5"
       sodipodi:cx="507.71429"
       sodipodi:cy="549.50505"
       sodipodi:r1="14.285714"
       sodipodi:r2="7.1428571"
       sodipodi:arg1="1.5707963"
       sodipodi:arg2="2.1991149"
       inkscape:flatsided="false"
       inkscape:rounded="0"
       inkscape:randomized="0"
       d="m 507.71429,563.79078 -4.19846,-8.50702 -9.38806,-1.36417 6.79326,-6.62179 -1.60367,-9.35012 8.39693,4.41453 8.39694,-4.41453 -1.60367,9.35012 6.79326,6.62179 -9.38806,1.36417 z"
       inkscape:transform-center-y="1.3641643" />
    <path
       sodipodi:type="star"
       style="fill:#ffe680;fill-opacity:1;stroke:none;stroke-width:0;stroke-miterlimit:4;stroke-dasharray:none;stroke-opacity:1"
       id="path4136-3"
       sodipodi:sides="5"
       sodipodi:cx="-6.0465436"
       sodipodi:cy="339.54745"
       sodipodi:r1="18.070158"
       sodipodi:r2="9.035079"
       sodipodi:arg1="1.8925469"
       sodipodi:arg2="2.5208654"
       inkscape:flatsided="false"
       inkscape:rounded="0"
       inkscape:randomized="0"
       d="m -11.76083,356.69031 -1.63535,-11.88781 -10.720001,-5.39222 10.80063,-5.22885 1.815643,-11.86161 8.3105071,8.65621 11.8421303,-1.93866 -5.6644543,10.57867 5.5031957,10.66346 -11.8113321,-2.11823 z"
       inkscape:transform-center-x="-0.042390886"
       inkscape:transform-center-y="-1.6851823"
       transform="matrix(0,1,-1,0,832.64377,994.16544)" />
    <path
       sodipodi:type="star"
       style="fill:#ffe680;fill-opacity:1;stroke:none;stroke-width:0;stroke-miterlimit:4;stroke-dasharray:none;stroke-opacity:1"
       id="path4138-6"
       sodipodi:sides="5"
       sodipodi:cx="411.09628"
       sodipodi:cy="768.11884"
       sodipodi:r1="15.386185"
       sodipodi:r2="7.6930928"
       sodipodi:arg1="1.9513027"
       sodipodi:arg2="2.5796212"
       inkscape:flatsided="false"
       inkscape:rounded="0"
       inkscape:randomized="0"
       d="m 405.382,782.40455 -0.79566,-10.18641 -8.84239,-5.11938 9.44198,-3.90449 2.13638,-9.99159 6.63112,7.7733 10.16274,-1.05576 -5.34372,8.70866 4.14454,9.33909 -9.93372,-2.39106 z"
       inkscape:transform-center-x="-0.31522375"
       inkscape:transform-center-y="-1.1662233"
       transform="matrix(0,1,-1,0,1438.358,734.16544)" />
    <path
       sodipodi:type="star"
       style="fill:#ffe680;fill-opacity:1;stroke:none;stroke-width:0;stroke-miterlimit:4;stroke-dasharray:none;stroke-opacity:1"
       id="path4142-7"
       sodipodi:sides="5"
       sodipodi:cx="79.667717"
       sodipodi:cy="653.83313"
       sodipodi:r1="16.162441"
       sodipodi:r2="8.0812206"
       sodipodi:arg1="0.78539816"
       sodipodi:arg2="1.4137167"
       inkscape:flatsided="false"
       inkscape:rounded="0"
       inkscape:randomized="0"
       d="m 91.096289,665.2617 -10.164391,-3.44684 -8.601776,6.41911 0.137175,-10.73204 -8.763035,-6.19716 10.249169,-3.18593 3.185923,-10.24916 6.19716,8.76303 10.732044,-0.13717 -6.419114,8.60177 z"
       inkscape:transform-center-x="-0.7813087"
       inkscape:transform-center-y="-0.7813071"
       transform="matrix(0,1,-1,0,832.64377,994.16544)" />
    <path
       sodipodi:type="star"
       style="fill:#ffe680;fill-opacity:1;stroke:none;stroke-width:0;stroke-miterlimit:4;stroke-dasharray:none;stroke-opacity:1"
       id="path4144-5"
       sodipodi:sides="5"
       sodipodi:cx="408.23917"
       sodipodi:cy="402.4046"
       sodipodi:r1="17.379322"
       sodipodi:r2="8.689661"
       sodipodi:arg1="1.735945"
       sodipodi:arg2="2.3642635"
       inkscape:flatsided="false"
       inkscape:rounded="0"
       inkscape:randomized="0"
       d="m 405.38202,419.54746 -3.33675,-11.04812 -10.99284,-3.51461 9.47628,-6.5875 -0.0544,-11.54088 9.19342,6.97682 10.95922,-3.61804 -3.79443,10.89941 6.82756,9.3048 -11.5385,-0.24061 z"
       inkscape:transform-center-x="0.79730233"
       inkscape:transform-center-y="-0.88290574"
       transform="matrix(0,1,-1,0,799.78663,937.02258)" />
    <path
       sodipodi:type="star"
       style="fill:#ffe680;fill-opacity:1;stroke:none;stroke-width:0;stroke-miterlimit:4;stroke-dasharray:none;stroke-opacity:1"
       id="path4148-3"
       sodipodi:sides="5"
       sodipodi:cx="128.85715"
       sodipodi:cy="599.56946"
       sodipodi:r1="14.285714"
       sodipodi:r2="7.1428571"
       sodipodi:arg1="1.5707963"
       sodipodi:arg2="2.1991149"
       inkscape:flatsided="false"
       inkscape:rounded="0"
       inkscape:randomized="0"
       d="m 128.85715,613.85517 -4.19847,-8.50702 -9.38805,-1.36416 6.79326,-6.6218 -1.60368,-9.35012 8.39694,4.41453 8.39693,-4.41453 -1.60367,9.35012 6.79326,6.6218 -9.38806,1.36416 z"
       inkscape:transform-center-y="1.3641643" />
    <path
       sodipodi:type="star"
       style="fill:#ffe680;fill-opacity:1;stroke:none;stroke-width:0;stroke-miterlimit:4;stroke-dasharray:none;stroke-opacity:1"
       id="path4148-5"
       sodipodi:sides="5"
       sodipodi:cx="742"
       sodipodi:cy="-37.573406"
       sodipodi:r1="14.285714"
       sodipodi:r2="7.1428571"
       sodipodi:arg1="1.5707963"
       sodipodi:arg2="2.1991149"
       inkscape:flatsided="false"
       inkscape:rounded="0"
       inkscape:randomized="0"
       d="m 742,-23.287692 -4.19847,-8.507022 -9.38805,-1.364163 6.79326,-6.621794 -1.60367,-9.350121 8.39693,4.414529 8.39693,-4.414529 -1.60367,9.350122 6.79326,6.621792 -9.38805,1.364165 z"
       inkscape:transform-center-y="1.3641643" />
    <path
       sodipodi:type="star"
       style="fill:#ffe680;fill-opacity:1;stroke:none;stroke-width:0;stroke-miterlimit:4;stroke-dasharray:none;stroke-opacity:1"
       id="path4148-6"
       sodipodi:sides="5"
       sodipodi:cx="307.71429"
       sodipodi:cy="-117.57339"
       sodipodi:r1="14.285714"
       sodipodi:r2="7.1428571"
       sodipodi:arg1="1.5707963"
       sodipodi:arg2="2.1991149"
       inkscape:flatsided="false"
       inkscape:rounded="0"
       inkscape:randomized="0"
       d="m 307.71429,-103.28767 -4.19846,-8.50702 -9.38806,-1.36417 6.79326,-6.62179 -1.60367,-9.35012 8.39693,4.41453 8.39694,-4.41453 -1.60367,9.35012 6.79326,6.62179 -9.38806,1.36417 z"
       inkscape:transform-center-y="1.3641643" />
    <path
       sodipodi:type="star"
       style="fill:#ffe680;fill-opacity:1;stroke:none;stroke-width:0;stroke-miterlimit:4;stroke-dasharray:none;stroke-opacity:1"
       id="path4148-2"
       sodipodi:sides="5"
       sodipodi:cx="573.42859"
       sodipodi:cy="-217.57339"
       sodipodi:r1="14.285714"
       sodipodi:r2="7.1428571"
       sodipodi:arg1="1.5707963"
       sodipodi:arg2="2.1991149"
       inkscape:flatsided="false"
       inkscape:rounded="0"
       inkscape:randomized="0"
       d="m 573.42859,-203.28768 -4.19847,-8.50702 -9.38805,-1.36417 6.79326,-6.62179 -1.60367,-9.35012 8.39693,4.41453 8.39693,-4.41453 -1.60367,9.35012 6.79326,6.62179 -9.38806,1.36417 z"
       inkscape:transform-center-y="1.3641643" />
    <path
       sodipodi:type="star"
       style="fill:#ffe680;fill-opacity:1;stroke:none;stroke-width:0;stroke-miterlimit:4;stroke-dasharray:none;stroke-opacity:1"
       id="path4136-9"
       sodipodi:sides="5"
       sodipodi:cx="-717.99994"
       sodipodi:cy="-1776.0947"
       sodipodi:r1="18.070158"
       sodipodi:r2="9.035079"
       sodipodi:arg1="1.8925469"
       sodipodi:arg2="2.5208654"
       inkscape:flatsided="false"
       inkscape:rounded="0"
       inkscape:randomized="0"
       d="m -723.71422,-1758.9519 -1.63536,-11.8878 -10.72,-5.3922 10.80063,-5.2288 1.81565,-11.8617 8.3105,8.6562 11.84213,-1.9386 -5.66445,10.5787 5.5032,10.6634 -11.81134,-2.1182 z"
       inkscape:transform-center-x="-1.6852085"
       inkscape:transform-center-y="0.042385309"
       transform="scale(-1,-1)" />
    <path
       sodipodi:type="star"
       style="fill:#ffe680;fill-opacity:1;stroke:none;stroke-width:0;stroke-miterlimit:4;stroke-dasharray:none;stroke-opacity:1"
       id="path4138-1"
       sodipodi:sides="5"
       sodipodi:cx="-163.71423"
       sodipodi:cy="-1364.6661"
       sodipodi:r1="15.386185"
       sodipodi:r2="7.6930928"
       sodipodi:arg1="1.9513027"
       sodipodi:arg2="2.5796212"
       inkscape:flatsided="false"
       inkscape:rounded="0"
       inkscape:randomized="0"
       d="m -169.42852,-1350.3804 -0.79566,-10.1864 -8.84239,-5.1194 9.44198,-3.9045 2.13638,-9.9916 6.63112,7.7733 10.16274,-1.0558 -5.34372,8.7087 4.14455,9.3391 -9.93372,-2.3911 z"
       inkscape:transform-center-x="-1.166219"
       inkscape:transform-center-y="0.31518766"
       transform="scale(-1,-1)" />
    <path
       sodipodi:type="star"
       style="fill:#ffe680;fill-opacity:1;stroke:none;stroke-width:0;stroke-miterlimit:4;stroke-dasharray:none;stroke-opacity:1"
       id="path4142-2"
       sodipodi:sides="5"
       sodipodi:cx="-632.28564"
       sodipodi:cy="-1461.809"
       sodipodi:r1="16.162441"
       sodipodi:r2="8.0812206"
       sodipodi:arg1="0.78539816"
       sodipodi:arg2="1.4137167"
       inkscape:flatsided="false"
       inkscape:rounded="0"
       inkscape:randomized="0"
       d="m -620.85707,-1450.3804 -10.16439,-3.4468 -8.60178,6.4191 0.13718,-10.7321 -8.76304,-6.1971 10.24917,-3.1859 3.18592,-10.2492 6.19716,8.763 10.73205,-0.1372 -6.41912,8.6018 z"
       inkscape:transform-center-x="-0.78133329"
       inkscape:transform-center-y="0.78127261"
       transform="scale(-1,-1)" />
    <path
       sodipodi:type="star"
       style="fill:#ffe680;fill-opacity:1;stroke:none;stroke-width:0;stroke-miterlimit:4;stroke-dasharray:none;stroke-opacity:1"
       id="path4144-7"
       sodipodi:sides="5"
       sodipodi:cx="-233.71422"
       sodipodi:cy="-1713.2375"
       sodipodi:r1="17.379322"
       sodipodi:r2="8.689661"
       sodipodi:arg1="1.735945"
       sodipodi:arg2="2.3642635"
       inkscape:flatsided="false"
       inkscape:rounded="0"
       inkscape:randomized="0"
       d="m -236.57136,-1696.0947 -3.33676,-11.0481 -10.99283,-3.5146 9.47627,-6.5875 -0.0544,-11.5409 9.19341,6.9768 10.95923,-3.618 -3.79443,10.8994 6.82755,9.3048 -11.5385,-0.2406 z"
       inkscape:transform-center-x="-0.88290141"
       inkscape:transform-center-y="-0.79730791"
       transform="scale(-1,-1)" />
    <path
       sodipodi:type="star"
       style="fill:#ffe680;fill-opacity:1;stroke:none;stroke-width:0;stroke-miterlimit:4;stroke-dasharray:none;stroke-opacity:1"
       id="path4148-0"
       sodipodi:sides="5"
       sodipodi:cx="-475.14278"
       sodipodi:cy="-1787.5231"
       sodipodi:r1="14.285714"
       sodipodi:r2="7.1428571"
       sodipodi:arg1="1.5707963"
       sodipodi:arg2="2.1991149"
       inkscape:flatsided="false"
       inkscape:rounded="0"
       inkscape:randomized="0"
       d="m -475.14279,-1773.2374 -4.19847,-8.507 -9.38805,-1.3641 6.79326,-6.6218 -1.60367,-9.3502 8.39693,4.4146 8.39693,-4.4146 -1.60367,9.3502 6.79326,6.6218 -9.38806,1.3641 z"
       transform="scale(-1,-1)"
       inkscape:transform-center-x="-3.0320382e-05"
       inkscape:transform-center-y="-1.3641835" />
    <path
       sodipodi:type="star"
       style="fill:#ffe680;fill-opacity:1;stroke:none;stroke-width:0;stroke-miterlimit:4;stroke-dasharray:none;stroke-opacity:1"
       id="path4148-3-9"
       sodipodi:sides="5"
       sodipodi:cx="-752.28564"
       sodipodi:cy="-1306.0303"
       sodipodi:r1="14.285714"
       sodipodi:r2="7.1428571"
       sodipodi:arg1="1.5707963"
       sodipodi:arg2="2.1991149"
       inkscape:flatsided="false"
       inkscape:rounded="0"
       inkscape:randomized="0"
       d="m -752.28564,-1291.7446 -4.19847,-8.507 -9.38806,-1.3641 6.79326,-6.6218 -1.60367,-9.3502 8.39694,4.4146 8.39693,-4.4146 -1.60367,9.3502 6.79326,6.6218 -9.38806,1.3641 z"
       transform="scale(-1,-1)"
       inkscape:transform-center-y="-1.3641987" />
    <path
       sodipodi:type="star"
       style="fill:#ffe680;fill-opacity:1;stroke:none;stroke-width:0;stroke-miterlimit:4;stroke-dasharray:none;stroke-opacity:1"
       id="path4148-5-3"
       sodipodi:sides="5"
       sodipodi:cx="-175.14281"
       sodipodi:cy="-1943.1732"
       sodipodi:r1="14.285714"
       sodipodi:r2="7.1428571"
       sodipodi:arg1="1.5707963"
       sodipodi:arg2="2.1991149"
       inkscape:flatsided="false"
       inkscape:rounded="0"
       inkscape:randomized="0"
       d="m -175.14281,-1928.8875 -4.19846,-8.507 -9.38806,-1.3642 6.79326,-6.6218 -1.60367,-9.3501 8.39693,4.4145 8.39693,-4.4145 -1.60367,9.3501 6.79326,6.6218 -9.38805,1.3642 z"
       transform="scale(-1,-1)"
       inkscape:transform-center-y="-1.3641682" />
    <path
       sodipodi:type="star"
       style="fill:#ffe680;fill-opacity:1;stroke:none;stroke-width:0;stroke-miterlimit:4;stroke-dasharray:none;stroke-opacity:1"
       id="path4148-6-6"
       sodipodi:sides="5"
       sodipodi:cx="-609.42853"
       sodipodi:cy="-2023.1732"
       sodipodi:r1="14.285714"
       sodipodi:r2="7.1428571"
       sodipodi:arg1="1.5707963"
       sodipodi:arg2="2.1991149"
       inkscape:flatsided="false"
       inkscape:rounded="0"
       inkscape:randomized="0"
       d="m -609.42853,-2008.8875 -4.19846,-8.507 -9.38806,-1.3642 6.79326,-6.6218 -1.60367,-9.3501 8.39693,4.4145 8.39693,-4.4145 -1.60367,9.3501 6.79326,6.6218 -9.38805,1.3642 z"
       transform="scale(-1,-1)"
       inkscape:transform-center-x="-3.0320382e-05"
       inkscape:transform-center-y="-1.3641682" />
    <path
       sodipodi:type="star"
       style="fill:#ffe680;fill-opacity:1;stroke:none;stroke-width:0;stroke-miterlimit:4;stroke-dasharray:none;stroke-opacity:1"
       id="path4148-2-0"
       sodipodi:sides="5"
       sodipodi:cx="-343.71426"
       sodipodi:cy="-2123.1731"
       sodipodi:r1="14.285714"
       sodipodi:r2="7.1428571"
       sodipodi:arg1="1.5707963"
       sodipodi:arg2="2.1991149"
       inkscape:flatsided="false"
       inkscape:rounded="0"
       inkscape:randomized="0"
       d="m -343.71426,-2108.8874 -4.19847,-8.507 -9.38806,-1.3642 6.79327,-6.6218 -1.60368,-9.3501 8.39694,4.4145 8.39693,-4.4145 -1.60367,9.3501 6.79326,6.6218 -9.38806,1.3642 z"
       transform="scale(-1,-1)"
       inkscape:transform-center-y="-1.3641682" />
  </g>
</svg>
