<?xml version="1.0" encoding="UTF-8" standalone="no"?>
<svg
   xmlns:dc="http://purl.org/dc/elements/1.1/"
   xmlns:cc="http://creativecommons.org/ns#"
   xmlns:rdf="http://www.w3.org/1999/02/22-rdf-syntax-ns#"
   xmlns:svg="http://www.w3.org/2000/svg"
   xmlns="http://www.w3.org/2000/svg"
   version="1.1"
   id="svg4354"
   viewBox="0 0 512.00001 512.00001"
   height="512"
   width="512">
  <defs
     id="defs4356" />
  <metadata
     id="metadata4359">
    <rdf:RDF>
      <cc:Work
         rdf:about="">
        <dc:format>image/svg+xml</dc:format>
        <dc:type
           rdf:resource="http://purl.org/dc/dcmitype/StillImage" />
        <dc:title></dc:title>
      </cc:Work>
    </rdf:RDF>
  </metadata>
  <g
     transform="translate(0,-540.36216)"
     id="layer1">
    <circle
       r="248.57143"
       cy="795.2193"
       cx="254.28574"
       id="path4265"
       style="fill:#ef9849;fill-opacity:1;stroke:none;stroke-width:0;stroke-miterlimit:4;stroke-dasharray:none" />
    <path
       id="path4273"
       d="m 167.48297,682.7703 c 0,0 72.9932,15.78235 118.36736,15.78235 45.37414,0 112.44895,-21.7007 128.2313,-17.75511 15.78228,3.94559 51.29251,11.83676 51.29251,11.83676 0,0 -47.34692,-31.56463 -71.02038,-31.56463 -23.67353,0 -84.82997,13.80952 -118.36738,13.80952 -33.53742,0 -108.50341,7.89111 -108.50341,7.89111 z"
       style="fill:#fcd58a;fill-opacity:1;fill-rule:evenodd;stroke:none;stroke-width:1px;stroke-linecap:butt;stroke-linejoin:miter;stroke-opacity:1" />
    <path
       id="path4265-6"
       d="m 108.70445,594.11827 a 248.57143,248.57143 0 0 0 -32.893363,28.46867 c 15.98132,4.16061 33.543913,8.19237 50.242933,10.86423 49.31974,7.89111 118.36811,7.89056 118.36811,7.89056 l 37.48262,0 c 0,0 -80.88455,-11.83635 -126.2587,-23.67305 -17.95272,-4.68336 -34.039,-14.00099 -46.9416,-23.55041 z"
       style="fill:#ff6600;fill-opacity:1;stroke:none;stroke-width:0;stroke-miterlimit:4;stroke-dasharray:none" />
    <path
       id="path4265-2"
       d="m 94.49036,716.30832 c -18.957728,0 -50.270307,4.54706 -78.702183,9.47651 a 248.57143,248.57143 0 0 0 -10.0739099,69.43463 248.57143,248.57143 0 0 0 6.3329789,54.34669 c 24.292057,-6.42537 47.473621,-12.6458 64.687623,-14.89109 45.374151,-5.91835 149.932361,-3.94593 197.279301,-3.94593 47.34694,0 132.17594,-19.72732 169.65892,-35.50967 16.18021,-6.81273 38.23284,-14.72254 58.08362,-21.51938 a 248.57143,248.57143 0 0 0 -10.42053,-52.38581 c -27.28576,0.4649 -56.19952,0.91163 -67.3902,0.91163 -23.67353,0 -136.12345,33.53781 -175.57923,31.56498 -39.45578,-1.97275 -112.44782,-37.48256 -153.87639,-37.48256 z"
       style="fill:#fcc561;fill-opacity:1;stroke:none;stroke-width:0;stroke-miterlimit:4;stroke-dasharray:none" />
    <path
       id="path4279"
       d="m 479.18366,822.83837 c 0,0 -207.14286,3.94558 -256.46259,-7.89118 -49.31973,-11.8367 -82.85714,-27.61905 -82.85714,-27.61905 0,0 80.88435,15.78235 153.87755,21.7007 72.99323,5.91835 134.14967,-1.97283 163.74148,-1.97283 29.59188,0 21.7007,15.78236 21.7007,15.78236 z"
       style="fill:#fcd58a;fill-opacity:1;fill-rule:evenodd;stroke:none;stroke-width:1px;stroke-linecap:butt;stroke-linejoin:miter;stroke-opacity:1" />
    <path
       id="path4265-9"
       d="m 281.90475,962.90678 c 0,0 81.35921,23.4405 119.55491,32.27569 a 248.57143,248.57143 0 0 0 23.66897,-19.59364 c -22.27407,-0.44094 -45.92792,-0.84556 -58.39378,-0.84556 -27.61903,0 -84.8301,-11.83649 -84.8301,-11.83649 z"
       style="fill:#c83737;fill-opacity:1;stroke:none;stroke-width:0;stroke-miterlimit:4;stroke-dasharray:none" />
    <path
       id="path4265-1"
       d="m 460.57892,844.10172 c -35.95724,0.11897 -89.80603,21.08991 -135.27262,32.00192 -49.31973,11.83676 -71.0206,27.61863 -112.44917,37.48264 -41.42858,9.86393 -108.50321,9.8649 -108.50321,9.8649 0,0 78.91195,11.83614 114.42215,7.89055 35.51021,-3.94558 142.04002,-27.6196 185.44142,-47.34754 20.75537,-9.43425 53.68052,-6.68008 82.40129,-1.24472 a 248.57143,248.57143 0 0 0 10.11982,-33.58656 c -9.65216,-2.02496 -19.12888,-3.70309 -27.4195,-4.62426 -2.77419,-0.3083 -5.6929,-0.44708 -8.74018,-0.43693 z"
       style="fill:#ff6600;fill-opacity:1;stroke:none;stroke-width:0;stroke-miterlimit:4;stroke-dasharray:none" />
    <path
       id="path4265-27"
       d="m 266.12224,860.32115 c 0,0 -69.048,9.86352 -114.42216,9.86352 -39.2656,0 -107.977032,17.70353 -125.793458,22.47693 a 248.57143,248.57143 0 0 0 10.764455,22.13163 c 38.836277,-4.31748 111.136773,-12.69945 126.866903,-16.98951 21.70068,-5.91835 102.58426,-37.48257 102.58426,-37.48257 z"
       style="fill:#fcc561;fill-opacity:1;stroke:none;stroke-width:0;stroke-miterlimit:4;stroke-dasharray:none" />
  </g>
</svg>
