<?xml version="1.0" encoding="UTF-8" standalone="no"?>
<svg
   xmlns:dc="http://purl.org/dc/elements/1.1/"
   xmlns:cc="http://creativecommons.org/ns#"
   xmlns:rdf="http://www.w3.org/1999/02/22-rdf-syntax-ns#"
   xmlns:svg="http://www.w3.org/2000/svg"
   xmlns="http://www.w3.org/2000/svg"
   version="1.1"
   id="svg4354"
   viewBox="0 0 512.00001 512.00001"
   height="512"
   width="512">
  <defs
     id="defs4356" />
  <metadata
     id="metadata4359">
    <rdf:RDF>
      <cc:Work
         rdf:about="">
        <dc:format>image/svg+xml</dc:format>
        <dc:type
           rdf:resource="http://purl.org/dc/dcmitype/StillImage" />
        <dc:title></dc:title>
      </cc:Work>
    </rdf:RDF>
  </metadata>
  <g
     transform="translate(0,-540.36216)"
     id="layer1">
    <path
       id="path4150"
       d="M 257.14219,549.50512 A 248.57141,248.57141 0 0 0 9.4817495,779.8994 c 1.7851855,0.37058 3.4886315,0.78393 5.2767855,1.14731 6.435639,1.30783 12.882877,2.56643 19.278928,3.75145 6.39605,1.18502 12.740912,2.29667 18.973281,3.31282 6.232369,1.01614 12.351773,1.93605 18.29623,2.73719 5.94446,0.80114 11.714043,1.48318 17.246433,2.02326 5.532323,0.54007 10.827722,0.93811 15.823813,1.17099 4.99603,0.23288 9.69288,0.30092 14.02838,0.18047 8.67113,-0.24083 17.43217,-0.60198 26.12583,-1.0498 8.69366,-0.44788 17.32001,-0.98303 25.72009,-1.57018 8.40016,-0.58708 16.57431,-1.22629 24.36472,-1.88493 7.79041,-0.65864 15.19627,-1.33582 22.06084,-1.99823 13.72927,-1.32477 25.29144,-2.5889 33.42061,-3.52222 8.12917,-0.9334 12.82582,-1.53592 12.82582,-1.53592 0,0 -1.74661,0.72203 -5.0924,1.96397 -3.34572,1.24194 -8.29043,3.00312 -14.68836,5.08053 -6.39794,2.07748 -14.24912,4.4722 -23.40577,6.97868 -4.57829,1.25321 -9.48333,2.53433 -14.69625,3.81863 -5.21292,1.28429 -10.73351,2.57122 -16.5443,3.83575 -5.81085,1.26454 -11.91104,2.50614 -18.28308,3.70006 -6.37204,1.19399 -13.01587,2.34037 -19.91248,3.41297 -6.8966,1.07259 -14.04678,2.0712 -21.4312,2.97162 -7.38447,0.90041 -15.00378,1.70284 -22.83938,2.38022 -7.835598,0.67746 -15.886739,1.23109 -24.136766,1.63466 -8.250094,0.40364 -16.698465,0.65736 -25.326301,0.73633 -8.627769,0.079 -17.434865,-0.0169 -26.403755,-0.31347 -6.788899,-0.22431 -13.754024,-0.68231 -20.7198905,-1.14732 A 248.57141,248.57141 0 0 0 257.14219,1046.6478 248.57141,248.57141 0 0 0 505.71418,798.07706 248.57141,248.57141 0 0 0 257.14219,549.50512 Z"
       style="fill:#aad4c3;fill-opacity:1;stroke:none;stroke-width:0;stroke-miterlimit:4;stroke-dasharray:none;stroke-opacity:1" />
    <path
       id="path4150-3"
       d="m 420.64262,611.09323 c -20.37459,3.92461 -49.34693,8.31561 -88.35018,11.63504 -52.10625,4.43457 -165.9199,3.76328 -253.325825,2.39603 a 248.57141,248.57141 0 0 0 -29.89434,37.35383 c 43.730981,3.9208 99.736715,7.59448 161.824835,8.42232 95.4808,1.27308 193.20654,-9.2086 248.72211,-16.48241 a 248.57141,248.57141 0 0 0 -38.9766,-43.32481 z"
       style="fill:#dad4c3;fill-opacity:1;stroke:none;stroke-width:0;stroke-miterlimit:4;stroke-dasharray:none;stroke-opacity:1" />
    <path
       id="path4150-6"
       d="m 407.92484,727.47653 c -48.94606,-0.0545 -200.37022,24.77604 -243.27409,28.20835 -28.7535,2.30027 -96.493914,-12.54197 -146.551685,-24.89816 a 248.57141,248.57141 0 0 0 -9.5275107,67.29034 248.57141,248.57141 0 0 0 9.8159587,68.77096 c 37.434073,4.20972 81.227572,6.82525 117.359347,2.52381 80.93022,-9.63454 173.42213,-50.09908 258.20619,-61.66057 40.99857,-5.59072 80.61547,2.79277 110.63094,12.93643 a 248.57141,248.57141 0 0 0 1.13019,-22.57063 248.57141,248.57141 0 0 0 -3.79887,-43.0587 c -32.84155,-10.60648 -68.66767,-22.20426 -80.98552,-26.31022 -2.52907,-0.84303 -6.99406,-1.22492 -13.00495,-1.23161 z"
       style="fill:#dad4c3;fill-opacity:1;stroke:none;stroke-width:0;stroke-miterlimit:4;stroke-dasharray:none;stroke-opacity:1" />
    <path
       id="path4197"
       d="m 9.4435775,817.71424 c 6.9658665,0.46501 13.9309915,0.92301 20.7198905,1.14732 8.96889,0.29641 17.775986,0.39251 26.403755,0.31347 8.627836,-0.079 17.076207,-0.33269 25.326301,-0.73633 8.250027,-0.40357 16.301168,-0.9572 24.136766,-1.63466 7.8356,-0.67738 15.45491,-1.47981 22.83938,-2.38022 7.38442,-0.90042 14.5346,-1.89903 21.4312,-2.97162 6.89661,-1.0726 13.54044,-2.21898 19.91248,-3.41297 6.37204,-1.19392 12.47223,-2.43552 18.28308,-3.70006 5.81079,-1.26453 11.33138,-2.55146 16.5443,-3.83575 5.21292,-1.2843 10.11796,-2.56542 14.69625,-3.81863 9.15665,-2.50648 17.00783,-4.9012 23.40577,-6.97868 6.39793,-2.07741 11.34264,-3.83859 14.68836,-5.08053 3.34579,-1.24194 5.0924,-1.96397 5.0924,-1.96397 0,0 -4.69665,0.60252 -12.82582,1.53592 -8.12917,0.93332 -19.69134,2.19745 -33.42061,3.52222 -6.86457,0.66241 -14.27043,1.33959 -22.06084,1.99823 -7.79041,0.65864 -15.96456,1.29785 -24.36472,1.88493 -8.40008,0.58715 -17.02643,1.1223 -25.72009,1.57018 -8.69366,0.44782 -17.4547,0.80897 -26.12583,1.0498 -4.3355,0.12045 -9.03235,0.0526 -14.02838,-0.18047 -4.996091,-0.23288 -10.29149,-0.63092 -15.823813,-1.17099 -5.53239,-0.54008 -11.301973,-1.22212 -17.246433,-2.02326 -5.944457,-0.80114 -12.063861,-1.72105 -18.29623,-2.73719 -6.232369,-1.01615 -12.577231,-2.1278 -18.973281,-3.31282 -6.396051,-1.18502 -12.843289,-2.44362 -19.278928,-3.75145 -1.788154,-0.36338 -3.4916,-0.77673 -5.2767855,-1.14731 a 248.57141,248.57141 0 0 0 -0.9101952,18.17766 248.57141,248.57141 0 0 0 0.8720232,19.63718 z"
       style="fill:#aad4c3;fill-opacity:1;stroke:none;stroke-width:0;stroke-miterlimit:4;stroke-dasharray:none;stroke-opacity:1" />
    <path
       id="path4150-7"
       d="m 292.27913,973.83164 c -43.1522,-0.0593 -87.52462,2.24379 -127.62838,13.08264 -15.26668,4.12616 -33.90039,8.07333 -53.74408,11.73252 a 248.57141,248.57141 0 0 0 39.60105,23.5783 c 32.96558,-9.2605 71.06914,-19.8953 118.19711,-19.8953 26.57424,0 65.01981,7.3581 102.34827,16.4297 a 248.57141,248.57141 0 0 0 56.16247,-39.82494 c -13.42194,-2.21924 -26.68519,-3.5815 -39.04256,-3.5815 -29.50581,0 -62.33097,-1.47529 -95.89388,-1.52142 z"
       style="fill:#dad4c3;fill-opacity:1;stroke:none;stroke-width:0;stroke-miterlimit:4;stroke-dasharray:none;stroke-opacity:1" />
  </g>
</svg>
