<?xml version="1.0" encoding="UTF-8" standalone="no"?>
<!-- Created with Inkscape (http://www.inkscape.org/) -->

<svg
   xmlns:dc="http://purl.org/dc/elements/1.1/"
   xmlns:cc="http://creativecommons.org/ns#"
   xmlns:rdf="http://www.w3.org/1999/02/22-rdf-syntax-ns#"
   xmlns:svg="http://www.w3.org/2000/svg"
   xmlns="http://www.w3.org/2000/svg"
   xmlns:sodipodi="http://sodipodi.sourceforge.net/DTD/sodipodi-0.dtd"
   xmlns:inkscape="http://www.inkscape.org/namespaces/inkscape"
   width="512"
   height="512"
   viewBox="0 0 512.00001 512.00001"
   id="svg4354"
   version="1.1"
   inkscape:version="0.91 r13725"
   sodipodi:docname="planet4.svg">
  <defs
     id="defs4356" />
  <sodipodi:namedview
     id="base"
     pagecolor="#ffffff"
     bordercolor="#666666"
     borderopacity="1.0"
     inkscape:pageopacity="0.0"
     inkscape:pageshadow="2"
     inkscape:zoom="0.98994949"
     inkscape:cx="148.38004"
     inkscape:cy="154.44372"
     inkscape:document-units="px"
     inkscape:current-layer="layer1"
     showgrid="false"
     units="px"
     showborder="true"
     inkscape:window-width="1920"
     inkscape:window-height="1027"
     inkscape:window-x="0"
     inkscape:window-y="0"
     inkscape:window-maximized="1" />
  <metadata
     id="metadata4359">
    <rdf:RDF>
      <cc:Work
         rdf:about="">
        <dc:format>image/svg+xml</dc:format>
        <dc:type
           rdf:resource="http://purl.org/dc/dcmitype/StillImage" />
        <dc:title></dc:title>
      </cc:Work>
    </rdf:RDF>
  </metadata>
  <g
     inkscape:label="Layer 1"
     inkscape:groupmode="layer"
     id="layer1"
     transform="translate(0,-540.36216)">
    <circle
       style="fill:#d7806d;fill-opacity:1;fill-rule:evenodd;stroke:#000000;stroke-width:0;stroke-linecap:butt;stroke-linejoin:miter;stroke-miterlimit:4;stroke-dasharray:none;stroke-opacity:1"
       id="path3336"
       cx="256.05316"
       cy="796.30878"
       r="254.49355" />
    <path
       style="fill:#e29c7a;fill-opacity:1;fill-rule:evenodd;stroke:none;stroke-width:1px;stroke-linecap:butt;stroke-linejoin:miter;stroke-opacity:1"
       d="m 66.464052,702.3682 c 3.416023,-47.82429 30.744185,-42.70025 40.992248,-42.70025 10.24807,0 81.9845,13.66408 42.70026,51.2403 -39.28423,37.57624 -42.70026,27.32817 -70.028421,66.61241 -27.328174,39.28426 -10.248064,-54.65634 -10.248064,-54.65634 z"
       id="path4214"
       inkscape:connector-curvature="0" />
    <path
       inkscape:connector-curvature="0"
       style="fill:#e29c7a;fill-opacity:1;fill-rule:evenodd;stroke:#000000;stroke-width:0;stroke-linecap:butt;stroke-linejoin:miter;stroke-miterlimit:4;stroke-dasharray:none;stroke-opacity:1"
       d="m 478.5354,759.68676 c -20.22842,-0.1204 -38.33766,1.71452 -46.55747,7.58581 -23.91214,17.0801 -51.24048,40.99243 -61.48855,73.44462 -10.24806,32.45218 68.32126,10.24786 68.32126,10.24786 l 61.9906,14.20611 a 254.49354,254.49354 0 0 0 9.74583,-68.86191 254.49354,254.49354 0 0 0 -2.74499,-35.35798 c -9.68445,-0.71035 -19.70879,-1.20761 -29.26668,-1.26451 z"
       id="path3336-3" />
    <path
       inkscape:connector-curvature="0"
       style="fill:#e29c7a;fill-opacity:1;fill-rule:evenodd;stroke:#000000;stroke-width:0;stroke-linecap:butt;stroke-linejoin:miter;stroke-miterlimit:4;stroke-dasharray:none;stroke-opacity:1"
       d="m 36.673282,924.69336 a 254.49354,254.49354 0 0 0 73.400238,79.92244 c 39.38415,7.2874 82.73451,13.7448 98.15539,10.3178 30.74418,-6.8319 90.52504,-11.9557 88.81704,-34.15986 -1.70801,-22.20416 -68.32076,4.6e-4 -111.02101,-6.83161 -42.70026,-6.83198 -40.99191,-39.2847 -68.32007,-40.99268 -16.45407,-1.02841 -53.788776,-5.13669 -81.031588,-8.25609 z"
       id="path3336-5" />
  </g>
</svg>
