<?xml version="1.0" encoding="utf-8"?>
<!-- Generator: Adobe Illustrator 21.0.2, SVG Export Plug-In . SVG Version: 6.00 Build 0)  -->
<svg version="1.1" id="Capa_1" xmlns="http://www.w3.org/2000/svg" xmlns:xlink="http://www.w3.org/1999/xlink" x="0px" y="0px"
	 viewBox="0 0 512 512" style="enable-background:new 0 0 512 512;" xml:space="preserve">
<style type="text/css">
	.st0{fill:#E3E6E9;}
	.st1{fill:#B6B8BE;}
	.st2{fill:#FF9300;}
	.st3{fill:#FFCF00;}
	.st4{fill:#888693;}
	.st5{fill:#5C546A;}
	.st6{fill:#FF4F19;}
	.st7{fill:#E5001E;}
</style>
<g>
	<rect x="136" y="232" class="st0" width="16" height="48"/>
	<rect x="360" y="232" class="st0" width="16" height="48"/>
	<path class="st0" d="M320,144h-24v16c0,1.1-0.1,2.2-0.2,3.3c-0.2,2.4-0.8,4.8-1.5,7c-0.1,0.4-0.3,0.8-0.4,1.2
		c-0.2,0.5-0.4,1.1-0.7,1.6c-0.3,0.7-0.7,1.4-1,2.1c-0.1,0.1-0.2,0.3-0.2,0.4c-0.8,1.4-1.7,2.8-2.7,4.1c-0.3,0.4-0.6,0.8-0.9,1.1
		c-0.5,0.6-1.1,1.2-1.7,1.8c0,0,0,0-0.1,0.1c-0.7,0.6-1.3,1.3-2,1.9c-0.6,0.5-1.2,1-1.9,1.5c-0.8,0.6-1.6,1.1-2.4,1.6
		c-0.5,0.3-1,0.5-1.4,0.8c-0.7,0.4-1.5,0.7-2.2,1.1c-0.2,0.1-0.4,0.2-0.6,0.3c-3.2,1.3-6.7,2.1-10.3,2.3c-0.5,0-1.1,0-1.6,0h-8h-8
		c-17.7,0-32-14.3-32-32v-16h-24c-30.9,0-56,25.1-56,56v16h16c0-8.8,7.2-16,16-16h8v16v16v48h16c0-4.4,3.6-8,8-8s8,3.6,8,8h16
		c0-4.4,3.6-8,8-8s8,3.6,8,8h16h80v-48v-16v-16h8c8.8,0,16,7.2,16,16h16v-16C376,169.1,350.9,144,320,144z M296,240h-16
		c-4.4,0-8-3.6-8-8s3.6-8,8-8h16c4.4,0,8,3.6,8,8S300.4,240,296,240z M296,216h-16c-4.4,0-8-3.6-8-8s3.6-8,8-8h16c4.4,0,8,3.6,8,8
		S300.4,216,296,216z"/>
	<path class="st0" d="M360,331.5c-6.6,6-14.8,10.2-24,11.7V336v-24h-80h-16v8c0,4.4-3.6,8-8,8s-8-3.6-8-8v-8h-16v8c0,4.4-3.6,8-8,8
		s-8-3.6-8-8v-8h-16v24v7.3c-9.2-1.5-17.4-5.7-24-11.7V296h-16c0,24,17.8,44,40.9,47.5L191.1,457c2.9-0.7,5.9-1,8.9-1h40
		c4.4,0,8,3.6,8,8v-96c0-4.4,3.6-8,8-8s8,3.6,8,8v96c0-4.4,3.6-8,8-8h40c3.1,0,6.1,0.4,8.9,1l14.2-113.5C358.2,340,376,320,376,296
		h-16V331.5z"/>
	<path class="st1" d="M344,304c0,0.3,0,0.5,0,0.8c0,0.4-0.1,0.8-0.2,1.2c0,0.2-0.1,0.4-0.2,0.6c-0.8,2.3-2.6,4.2-4.9,5
		c-0.8,0.3-1.7,0.5-2.6,0.5v24v7.3c9.2-1.5,17.4-5.7,24-11.7V296h-16V304z"/>
	<path class="st1" d="M344,200h-8v16h24C360,207.2,352.8,200,344,200z"/>
	<rect x="336" y="232" class="st1" width="24" height="48"/>
	<path class="st1" d="M168,304v-8h-16v35.5c6.6,6,14.8,10.2,24,11.7V336v-24C171.6,312,168,308.4,168,304z"/>
	<rect x="152" y="232" class="st1" width="24" height="48"/>
	<path class="st1" d="M176,200h-8c-8.8,0-16,7.2-16,16h24V200z"/>
	<path class="st2" d="M200,120h56V0c-44.1,0-80,35.9-80,80c0,15.9,4.7,31.3,13.5,44.4c0.7,1,1.6,1.8,2.6,2.4
		C192.6,123,196,120,200,120z"/>
	<path class="st3" d="M312,120c4,0,7.4,3,7.9,6.9c1-0.6,1.9-1.4,2.6-2.4C331.3,111.3,336,95.9,336,80c0-44.1-35.9-80-80-80v120H312z
		"/>
	<path class="st4" d="M224,136h16h16v-8v-8h-56c-4,0-7.4,3-7.9,6.9c-0.1,0.4-0.1,0.7-0.1,1.1v16h24C216,139.6,219.6,136,224,136z"/>
	<path class="st0" d="M296,200h-16c-4.4,0-8,3.6-8,8s3.6,8,8,8h16c4.4,0,8-3.6,8-8S300.4,200,296,200z"/>
	<path class="st0" d="M296,224h-16c-4.4,0-8,3.6-8,8s3.6,8,8,8h16c4.4,0,8-3.6,8-8S300.4,224,296,224z"/>
	<path class="st1" d="M312,120h-56v8v8h16h16c4.4,0,8,3.6,8,8h24v-16c0-0.4,0-0.7-0.1-1.1C319.4,123,316,120,312,120z"/>
	<path class="st5" d="M240,152v-16h-16c-4.4,0-8,3.6-8,8v16c0,17.7,14.3,32,32,32h8v-24C247.2,168,240,160.8,240,152z"/>
	<path class="st5" d="M296,160c0,1.1-0.1,2.2-0.2,3.3C295.9,162.2,296,161.1,296,160z"/>
	<path class="st5" d="M276.6,189.4c-0.2,0.1-0.4,0.2-0.6,0.3C276.2,189.6,276.4,189.5,276.6,189.4z"/>
	<path class="st5" d="M284.5,184.5c-0.6,0.5-1.2,1-1.9,1.5C283.3,185.5,283.9,185.1,284.5,184.5z"/>
	<path class="st5" d="M295.8,163.3c-0.2,2.4-0.8,4.8-1.5,7C295.1,168,295.6,165.7,295.8,163.3z"/>
	<path class="st5" d="M280.2,187.6c-0.5,0.3-1,0.5-1.4,0.8C279.3,188.1,279.8,187.8,280.2,187.6z"/>
	<path class="st5" d="M289.2,179.7c-0.3,0.4-0.6,0.8-0.9,1.1C288.6,180.4,288.9,180.1,289.2,179.7z"/>
	<path class="st5" d="M293.9,171.5c-0.2,0.5-0.4,1.1-0.7,1.6C293.4,172.6,293.7,172,293.9,171.5z"/>
	<path class="st5" d="M292.2,175.2c-0.1,0.1-0.2,0.3-0.2,0.4C292,175.5,292.1,175.3,292.2,175.2z"/>
	<path class="st5" d="M286.6,182.6C286.6,182.6,286.6,182.7,286.6,182.6C286.6,182.7,286.6,182.6,286.6,182.6z"/>
	<path class="st4" d="M288,136h-16v16c0,8.8-7.2,16-16,16v24h8c0.6,0,1.1,0,1.6,0c3.6-0.2,7.1-1,10.3-2.3c0.2-0.1,0.4-0.2,0.6-0.3
		c0.8-0.3,1.5-0.7,2.2-1.1c0.5-0.3,1-0.5,1.4-0.8c0.8-0.5,1.6-1,2.4-1.6c0.6-0.5,1.3-1,1.9-1.5c0.7-0.6,1.4-1.2,2-1.9
		c0,0,0,0,0.1-0.1c0.6-0.6,1.1-1.2,1.7-1.8c0.3-0.4,0.6-0.8,0.9-1.1c1-1.3,1.9-2.6,2.7-4.1c0.1-0.1,0.2-0.3,0.2-0.4
		c0.4-0.7,0.7-1.4,1-2.1c0.2-0.5,0.5-1.1,0.7-1.6c0.2-0.4,0.3-0.8,0.4-1.2c0.8-2.2,1.3-4.6,1.5-7c0.1-1.1,0.2-2.2,0.2-3.3v-16
		C296,139.6,292.4,136,288,136z"/>
	<path class="st6" d="M256,168c8.8,0,16-7.2,16-16v-16h-16v8V168z"/>
	<path class="st7" d="M240,152c0,8.8,7.2,16,16,16v-24v-8h-16V152z"/>
	<rect x="336" y="216" class="st7" width="24" height="16"/>
	<rect x="152" y="216" class="st7" width="24" height="16"/>
	<rect x="360" y="216" class="st6" width="16" height="16"/>
	<rect x="136" y="216" class="st6" width="16" height="16"/>
	<path class="st5" d="M152,296h16v8c0,4.4,3.6,8,8,8h16v-32h-16h-24V296z"/>
	<rect x="136" y="280" class="st4" width="16" height="16"/>
	<path class="st5" d="M344,288v8h16v-16h-24C340.4,280,344,283.6,344,288z"/>
	<rect x="360" y="280" class="st4" width="16" height="16"/>
	<rect x="208" y="280" class="st5" width="16" height="32"/>
	<rect x="240" y="280" class="st5" width="16" height="32"/>
	<path class="st5" d="M343.6,306.6c-0.8,2.3-2.6,4.2-4.9,5C341,310.7,342.8,308.9,343.6,306.6z"/>
	<path class="st5" d="M343.7,306c0.1-0.4,0.2-0.8,0.2-1.2C343.9,305.2,343.8,305.6,343.7,306z"/>
	<path class="st4" d="M336,312c0.9,0,1.8-0.2,2.6-0.5c2.3-0.8,4.1-2.6,4.9-5c0.1-0.2,0.1-0.4,0.2-0.6c0.1-0.4,0.2-0.8,0.2-1.2
		c0-0.3,0-0.5,0-0.8v-8v-8c0-4.4-3.6-8-8-8h-80v32H336z"/>
	<path class="st2" d="M192,320c0,4.4,3.6,8,8,8s8-3.6,8-8v-8v-32c0-4.4-3.6-8-8-8s-8,3.6-8,8v32V320z"/>
	<path class="st7" d="M224,320c0,4.4,3.6,8,8,8s8-3.6,8-8v-8v-32c0-4.4-3.6-8-8-8s-8,3.6-8,8v32V320z"/>
	<path class="st4" d="M160.4,506.6c0.8,2.3,2.6,4.2,4.9,5C163,510.7,161.2,508.9,160.4,506.6z"/>
	<path class="st4" d="M248,504.8c0,0.4-0.1,0.8-0.2,1.2C247.8,505.6,247.9,505.2,248,504.8z"/>
	<path class="st4" d="M160.3,506c-0.1-0.4-0.2-0.8-0.2-1.2C160.1,505.2,160.2,505.6,160.3,506z"/>
	<path class="st4" d="M242.6,511.5c2.3-0.8,4.1-2.6,4.9-5C246.8,508.9,245,510.7,242.6,511.5z"/>
	<path class="st4" d="M240,456h-40c-3.1,0-6.1,0.4-8.9,1c-17.8,4.1-31.1,20-31.1,39c0-2.7,0.3-5.4,0.8-8H248v-24
		C248,459.6,244.4,456,240,456z"/>
	<path class="st4" d="M264.3,506c-0.1-0.4-0.2-0.8-0.2-1.2C264.1,505.2,264.2,505.6,264.3,506z"/>
	<path class="st4" d="M346.6,511.5c2.3-0.8,4.1-2.6,4.9-5C350.8,508.9,349,510.7,346.6,511.5z"/>
	<path class="st4" d="M352,504.8c0,0.4-0.1,0.8-0.2,1.2C351.8,505.6,351.9,505.2,352,504.8z"/>
	<path class="st4" d="M264.4,506.6c0.8,2.3,2.6,4.2,4.9,5C267,510.7,265.2,508.9,264.4,506.6z"/>
	<path class="st4" d="M272,456c-4.4,0-8,3.6-8,8v24h87.2c0.5,2.6,0.8,5.3,0.8,8c0-19-13.3-34.9-31.1-39c-2.9-0.7-5.9-1-8.9-1H272z"
		/>
	<path class="st1" d="M160,496v8c0,0.3,0,0.5,0,0.8c0,0.4,0.1,0.8,0.2,1.2c0.1,0.2,0.1,0.4,0.2,0.6c0.8,2.3,2.6,4.2,4.9,5
		c0.8,0.3,1.7,0.5,2.6,0.5h72c0.9,0,1.8-0.2,2.6-0.5c2.3-0.8,4.1-2.6,4.9-5c0.1-0.2,0.1-0.4,0.2-0.6c0.1-0.4,0.2-0.8,0.2-1.2
		c0-0.3,0-0.5,0-0.8v-16h-87.2C160.3,490.6,160,493.3,160,496z"/>
	<path class="st1" d="M264,488v16c0,0.3,0,0.5,0,0.8c0,0.4,0.1,0.8,0.2,1.2c0,0.2,0.1,0.4,0.2,0.6c0.8,2.3,2.6,4.2,4.9,5
		c0.8,0.3,1.7,0.5,2.6,0.5h72c0.9,0,1.8-0.2,2.6-0.5c2.3-0.8,4.1-2.6,4.9-5c0.1-0.2,0.1-0.4,0.2-0.6c0.1-0.4,0.2-0.8,0.2-1.2
		c0-0.3,0-0.5,0-0.8v-8c0-2.7-0.3-5.4-0.8-8H264z"/>
</g>
</svg>
