<?xml version="1.0" encoding="UTF-8"?>
<svg width="244px" height="272px" viewBox="0 0 244 272" version="1.1" xmlns="http://www.w3.org/2000/svg" xmlns:xlink="http://www.w3.org/1999/xlink">
    <!-- Generator: Sketch 44.1 (41455) - http://www.bohemiancoding.com/sketch -->
    <title>Group</title>
    <desc>Created with Sketch.</desc>
    <defs></defs>
    <g id="Page-1" stroke="none" stroke-width="1" fill="none" fill-rule="evenodd">
        <g id="home" transform="translate(-46.000000, -119.000000)">
            <g id="Group" transform="translate(47.300000, 120.000000)">
                <path d="M30.0293539,137.180094 C42.7571568,182.651057 84.4953028,216 134.020997,216 C193.656154,216 242,167.646753 242,108 C242,48.353247 193.656154,0 134.020997,0 C81.2310521,0 37.2890442,37.8898897 27.8968295,87.9628152 C14.7831812,79.028623 12.0476676,64.9547434 19.6902887,45.7411765 C-4.02274716,86.8235294 -6.24584427,110.117647 13.0209974,115.623529 C32.287839,121.129412 64.6815398,120.811765 110.2021,114.670588 C113.166229,114.882353 113.695538,115.835294 111.790026,117.529412 C109.35863,119.691073 55.9097646,133.345389 30.0293539,137.180094 Z" id="Combined-Shape" fill="#F5F4FF"></path>
                <path d="M164.697569,109.714615 L218.623759,86.8243055 C225.936774,84.1155788 229.600484,80.9050237 229.614891,77.1926402 C229.6365,71.6240649 218.680298,69.2928628 218.622531,69.2509307 C218.622531,69.2509307 218.622531,69.2509307 218.622531,69.2509307 C209.251029,62.4483945 196.999822,61.0552588 186.340251,65.5799783 L186.340255,65.579986 L148.354378,81.704034 C144.416378,81.0722524 140.379365,80.0691513 136.243338,78.6947306 C131.796869,76.8702861 128.649539,74.1724679 125.444867,75.5992798 L118.630813,78.6934581 C115.42614,80.12027 113.985125,83.8753349 115.412214,87.0806302 C117.079857,90.8262163 118.492042,93.9980358 119.648769,96.5960888 C116.624087,100.978394 115.838942,106.767163 118.073493,112.031434 L118.073493,112.031434 L118.073493,112.031434 C120.405929,117.52631 125.434896,121.051488 130.964394,121.719729 C132.565891,125.316751 134.37257,129.374619 136.384431,133.893332 C137.81152,137.098628 141.566305,138.540373 144.770977,137.113561 L151.629892,134.120142 C154.834564,132.69333 154.935669,128.549215 156.555111,124.024053 C158.893279,118.676806 161.607432,113.906994 164.697569,109.714615 Z" id="Combined-Shape" fill="#0D1D37"></path>
                <path d="M126.103626,91.0617739 L156.687912,78.0795145 L169.418015,107.677827 L138.679633,120.689011 L138.679633,120.689011 C130.496514,124.152826 121.05435,120.332418 117.582303,112.152788 L117.582303,112.152788 L117.582303,112.152788 C114.111278,103.975567 117.926405,94.5327983 126.103626,91.0617739 Z" id="Rectangle" fill="#EC9696"></path>
            </g>
            <path d="M57.8075002,361.515 L57.8075002,383.6 L56.5825002,383.6 L56.5825002,357.7 L73.4525002,382.41 L90.3225002,357.7 L90.3225002,383.6 L89.0975002,383.6 L89.0975002,361.515 L73.4525002,384.405 L57.8075002,361.515 Z M95.2225002,383.6 L95.2225002,358.505 L119.4425,358.505 L119.4425,359.73 L100.1225,359.73 L100.1225,364.385 L119.5825,364.385 L119.5825,365.61 L100.1225,365.61 L100.1225,382.375 L119.4425,382.375 L119.4425,383.6 L95.2225002,383.6 Z M123.8175,383.6 L123.8175,358.505 L137.6425,358.505 C139.859178,358.505 141.877491,358.802497 143.6975,359.3975 C145.517509,359.992503 147.074994,360.838328 148.37,361.935 C149.665007,363.031672 150.662497,364.355825 151.3625,365.9075 C152.062504,367.459174 152.4125,369.17999 152.4125,371.07 C152.4125,372.960009 152.062504,374.680825 151.3625,376.2325 C150.662497,377.784174 149.665007,379.102494 148.37,380.1875 C147.074994,381.272505 145.517509,382.112497 143.6975,382.7075 C141.877491,383.302503 139.859178,383.6 137.6425,383.6 L123.8175,383.6 Z M137.6425,382.375 C139.67251,382.375 141.509992,382.106669 143.155,381.57 C144.800008,381.03333 146.211661,380.275005 147.39,379.295 C148.568339,378.314995 149.47833,377.13084 150.12,375.7425 C150.76167,374.354159 151.0825,372.796675 151.0825,371.07 C151.0825,369.366658 150.76167,367.815007 150.12,366.415 C149.47833,365.014993 148.568339,363.819171 147.39,362.8275 C146.211661,361.835828 144.800008,361.071669 143.155,360.535 C141.509992,359.99833 139.67251,359.73 137.6425,359.73 L128.7175,359.73 L128.7175,382.375 L137.6425,382.375 Z M162.2475,357 C160.684159,357 159.435838,357.460828 158.5025,358.3825 C157.569162,359.304171 157.1025,360.569992 157.1025,362.18 C157.1025,363.300005 157.394164,364.437494 157.9775,365.5925 C158.560836,366.747505 159.365828,368.059992 160.3925,369.53 C160.905836,370.27667 161.395831,371.011663 161.8625,371.735 C162.329169,372.458337 162.743332,373.193329 163.105,373.94 C163.466669,374.68667 163.752499,375.450829 163.9625,376.2325 C164.172501,377.01417 164.2775,377.836662 164.2775,378.7 C164.2775,379.703338 164.114168,380.659995 163.7875,381.57 C163.460832,382.480004 162.97667,383.290829 162.335,384.0025 C161.69333,384.71417 160.876672,385.285831 159.885,385.7175 C158.893329,386.149168 157.732507,386.399999 156.4025,386.47 L156.4025,385.245 C157.545839,385.198333 158.531663,384.982502 159.36,384.5975 C160.188338,384.212498 160.864998,383.722503 161.39,383.1275 C161.915003,382.532497 162.305832,381.855837 162.5625,381.0975 C162.819168,380.339163 162.9475,379.540004 162.9475,378.7 C162.9475,377.206659 162.597504,375.76584 161.8975,374.3775 C161.197497,372.989159 160.322505,371.58334 159.2725,370.16 C158.199161,368.689992 157.347503,367.325006 156.7175,366.065 C156.087497,364.804993 155.7725,363.510006 155.7725,362.18 C155.7725,360.14999 156.355828,358.575005 157.5225,357.455 C158.689173,356.334994 160.264157,355.775 162.2475,355.775 L162.2475,357 Z M168.6175,383.6 L168.6175,358.505 L184.4025,358.505 C186.012508,358.505 187.47666,358.720831 188.795,359.1525 C190.11334,359.584168 191.233329,360.196662 192.155,360.99 C193.076671,361.783337 193.794164,362.739994 194.3075,363.86 C194.820836,364.980005 195.0775,366.228326 195.0775,367.605 C195.0775,368.981673 194.820836,370.229994 194.3075,371.35 C193.794164,372.470005 193.076671,373.420829 192.155,374.2025 C191.233329,374.98417 190.11334,375.590831 188.795,376.0225 C187.47666,376.454168 186.012508,376.67 184.4025,376.67 L173.5175,376.67 L173.5175,383.6 L168.6175,383.6 Z M184.4025,375.445 C185.802507,375.445 187.079994,375.258335 188.235,374.885 C189.390006,374.511664 190.375829,373.98667 191.1925,373.31 C192.009171,372.63333 192.639165,371.810838 193.0825,370.8425 C193.525836,369.874161 193.7475,368.795006 193.7475,367.605 C193.7475,366.414994 193.525836,365.335838 193.0825,364.3675 C192.639165,363.399161 192.009171,362.570836 191.1925,361.8825 C190.375829,361.194163 189.390006,360.663335 188.235,360.29 C187.079994,359.916664 185.802507,359.73 184.4025,359.73 L173.5175,359.73 L173.5175,375.445 L184.4025,375.445 Z M222.9375,379.19 L200.8525,379.19 L197.9125,383.6 L196.3725,383.6 L213.7325,357.7 L231.2675,383.6 L225.8775,383.6 L222.9375,379.19 Z M201.6575,377.965 L222.0975,377.965 L211.9125,362.67 L201.6575,377.965 Z M248.3125,382.97 C249.642507,382.97 250.873328,382.841668 252.005,382.585 C253.136673,382.328332 254.174995,381.972502 255.12,381.5175 C256.065005,381.062497 256.922496,380.525836 257.6925,379.9075 C258.462504,379.289163 259.174164,378.60667 259.8275,377.86 L260.8075,378.77 C260.13083,379.540004 259.378338,380.257496 258.55,380.9225 C257.721663,381.587503 256.788339,382.159164 255.75,382.6375 C254.711662,383.115835 253.580006,383.494998 252.355,383.775 C251.129994,384.055001 249.782508,384.195 248.3125,384.195 C246.375824,384.195 244.509176,383.891669 242.7125,383.285 C240.915825,382.67833 239.329174,381.820839 237.9525,380.7125 C236.575827,379.604161 235.479171,378.262508 234.6625,376.6875 C233.845829,375.112492 233.4375,373.345009 233.4375,371.385 C233.4375,369.42499 233.822496,367.634174 234.5925,366.0125 C235.362504,364.390825 236.418327,362.990839 237.76,361.8125 C239.101674,360.63416 240.676658,359.718336 242.485,359.065 C244.293343,358.411663 246.235823,358.085 248.3125,358.085 C250.94918,358.085 253.340823,358.487496 255.4875,359.2925 C257.634178,360.097504 259.337494,361.246659 260.5975,362.74 L259.6525,363.65 C258.322494,362.249993 256.706676,361.17667 254.805,360.43 C252.903324,359.683329 250.739179,359.31 248.3125,359.31 C246.422491,359.31 244.655008,359.607497 243.01,360.2025 C241.364992,360.797503 239.930006,361.631661 238.705,362.705 C237.479994,363.778338 236.517504,365.049992 235.8175,366.52 C235.117497,367.990007 234.7675,369.611657 234.7675,371.385 C234.7675,373.158342 235.14083,374.756659 235.8875,376.18 C236.634171,377.60334 237.631661,378.816661 238.88,379.82 C240.12834,380.823338 241.569159,381.599164 243.2025,382.1475 C244.835842,382.695836 246.539158,382.97 248.3125,382.97 Z M265.3225,383.6 L265.3225,358.505 L289.5425,358.505 L289.5425,359.73 L270.2225,359.73 L270.2225,364.385 L289.6825,364.385 L289.6825,365.61 L270.2225,365.61 L270.2225,382.375 L289.5425,382.375 L289.5425,383.6 L265.3225,383.6 Z" id="MedSpace" fill="#F5F4FF"></path>
        </g>
    </g>
</svg>