<?xml version="1.0" encoding="iso-8859-1"?>
<!-- Generator: Adobe Illustrator 19.0.0, SVG Export Plug-In . SVG Version: 6.00 Build 0)  -->
<svg version="1.1" id="Layer_1" xmlns="http://www.w3.org/2000/svg" xmlns:xlink="http://www.w3.org/1999/xlink" x="0px" y="0px"
	 viewBox="0 0 512 512" style="enable-background:new 0 0 512 512;" xml:space="preserve">
<g>
	<path style="fill:#87DFD6;" d="M440.114,174.365c7.199,20.419,11.13,42.385,11.13,65.279v65.279h11.39
		c21.117,0,38.235-17.171,38.235-38.351v-53.855c0-21.181-17.119-38.351-38.235-38.351h-22.52V174.365z"/>
	<path style="fill:#87DFD6;" d="M71.886,174.365c-7.199,20.419-11.13,42.385-11.13,65.279v65.279h-11.39
		c-21.117-0.001-38.235-17.171-38.235-38.352v-53.855c0-21.181,17.119-38.351,38.235-38.351H71.886z"/>
</g>
<path style="fill:#DFF5F2;" d="M451.245,239.644v161.768H60.755V239.644c0-35.675,9.502-69.114,26.131-97.918
	C120.646,83.187,183.743,43.807,256,43.807c53.92,0,102.732,21.917,138.054,57.364c12.024,12.061,22.501,25.688,31.059,40.555
	C441.742,170.529,451.245,203.969,451.245,239.644z"/>
<g>
	<path style="fill:#4A7DBA;" d="M352.992,160.64c-24.986-8.927-60.988-18.915-96.992-18.915s-72.007,9.988-96.992,18.915
		c-19.891,7.106-33.171,25.984-33.171,47.163v79.701c0,27.646,22.344,50.058,49.908,50.058h13.472H256h80.256
		c27.563,0,49.908-22.412,49.908-50.058v-79.701C386.164,186.623,372.883,167.746,352.992,160.64z"/>
	<polyline style="fill:#4A7DBA;" points="55.652,468.193 11.13,468.193 11.13,401.41 500.87,401.41 500.87,468.193 122.435,468.193 
			"/>
</g>
<path d="M462.634,316.053c27.221,0,49.366-22.197,49.366-49.483v-53.855c0-27.284-22.145-49.481-49.366-49.481h-14.831
	c-3.683-9.309-8.022-18.365-13.043-27.063c-8.981-15.602-20.025-30.022-32.823-42.858C362.972,54.212,311.143,32.677,256,32.677
	c-36.871,0-73.061,9.875-104.657,28.556c-30.659,18.127-56.282,44.038-74.098,74.928c-5.024,8.703-9.364,17.762-13.048,27.074
	H49.366C22.145,163.235,0,185.432,0,212.716v53.855c0,27.284,22.145,49.483,49.366,49.483h0.259v74.227H11.13
	C4.983,390.28,0,395.263,0,401.41v66.783c0,6.147,4.983,11.13,11.13,11.13h44.522c6.147,0,11.13-4.983,11.13-11.13
	c0-6.147-4.983-11.13-11.13-11.13H22.261v-44.522h38.495h390.489h38.495v44.522H122.435c-6.147,0-11.13,4.983-11.13,11.13
	c0,6.147,4.983,11.13,11.13,11.13H500.87c6.147,0,11.13-4.983,11.13-11.13V401.41c0-6.147-4.983-11.13-11.13-11.13h-38.495v-74.227
	L462.634,316.053L462.634,316.053z M455.223,185.495h7.412c14.946,0,27.105,12.211,27.105,27.221v53.855
	c0,15.009-12.159,27.222-27.105,27.222h-0.259v-54.148C462.375,221.236,459.973,203.084,455.223,185.495z M49.366,293.792
	c-14.946,0-27.105-12.212-27.105-27.222v-53.855c0-15.009,12.159-27.221,27.105-27.221h7.412
	c-4.752,17.588-7.152,35.741-7.152,54.148v54.148H49.366z M71.886,390.28v-85.357v-65.279c0-1.834,0.036-3.666,0.09-5.497
	c0.011-0.363,0.021-0.727,0.035-1.09c0.137-3.862,0.387-7.713,0.764-11.548c0.003-0.033,0.007-0.068,0.01-0.101
	c1.376-13.96,4.328-27.69,8.773-40.913c0.073-0.218,0.148-0.436,0.223-0.653c3.841-11.284,8.769-22.195,14.748-32.553
	c32.851-56.964,93.959-92.35,159.472-92.35c49.183,0,95.412,19.209,130.173,54.092c11.428,11.462,21.284,24.33,29.303,38.261
	c5.976,10.351,10.901,21.256,14.741,32.534c0.078,0.227,0.156,0.454,0.233,0.681c4.443,13.219,7.394,26.945,8.769,40.901
	c0.003,0.033,0.007,0.068,0.01,0.101c0.376,3.834,0.627,7.686,0.764,11.548c0.012,0.364,0.023,0.727,0.034,1.09
	c0.055,1.831,0.09,3.663,0.09,5.497v65.279v85.357H71.886V390.28z"/>
<path d="M232.882,333.301c-0.278-0.668-0.623-1.313-1.024-1.914c-0.401-0.612-0.868-1.18-1.38-1.692s-1.08-0.979-1.692-1.391
	c-0.601-0.401-1.247-0.746-1.926-1.024c-0.668-0.278-1.369-0.49-2.081-0.634c-1.436-0.289-2.905-0.289-4.341,0
	c-0.712,0.145-1.414,0.356-2.081,0.634c-0.679,0.278-1.325,0.623-1.926,1.024c-0.612,0.412-1.18,0.879-1.692,1.391
	s-0.979,1.08-1.38,1.692c-0.401,0.601-0.746,1.247-1.024,1.914c-0.278,0.679-0.501,1.38-0.634,2.081
	c-0.145,0.723-0.223,1.458-0.223,2.182c0,0.723,0.078,1.458,0.223,2.17c0.134,0.712,0.356,1.414,0.634,2.081
	c0.278,0.679,0.623,1.325,1.024,1.926c0.401,0.612,0.868,1.18,1.38,1.692s1.08,0.979,1.692,1.38
	c0.601,0.401,1.247,0.746,1.926,1.024c0.668,0.278,1.369,0.49,2.081,0.634c0.712,0.145,1.447,0.223,2.17,0.223
	c0.723,0,1.458-0.078,2.17-0.223c0.712-0.145,1.414-0.356,2.081-0.634c0.679-0.278,1.325-0.623,1.926-1.024
	c0.612-0.401,1.18-0.868,1.692-1.38s0.979-1.08,1.38-1.692c0.401-0.601,0.746-1.247,1.024-1.926
	c0.278-0.668,0.501-1.369,0.634-2.081c0.145-0.712,0.223-1.447,0.223-2.17c0-0.723-0.078-1.458-0.223-2.182
	C233.383,334.681,233.16,333.98,232.882,333.301z"/>
<path d="M356.736,150.158c-24.981-8.926-62.737-19.564-100.736-19.564s-75.755,10.638-100.736,19.564
	c-24.258,8.666-40.557,31.832-40.557,57.645v79.701c0,33.74,27.382,61.188,61.037,61.188h13.473c6.147,0,11.13-4.983,11.13-11.13
	c0-6.147-4.983-11.13-11.13-11.13h-13.473c-21.382,0-38.776-17.463-38.776-38.928v-79.701c0-16.431,10.362-31.172,25.786-36.681
	c23.325-8.332,58.436-18.266,93.247-18.266s69.923,9.933,93.247,18.266c15.422,5.51,25.786,20.251,25.786,36.681v79.701
	c0,21.465-17.395,38.928-38.776,38.928H256c-6.147,0-11.13,4.983-11.13,11.13c0,6.147,4.983,11.13,11.13,11.13h80.256
	c33.656,0,61.037-27.449,61.037-61.188v-79.701C397.293,181.989,380.995,158.824,356.736,150.158z"/>
<path d="M86.873,457.283c-0.712,0.145-1.414,0.356-2.081,0.634c-0.679,0.278-1.325,0.623-1.926,1.024
	c-0.612,0.401-1.18,0.868-1.692,1.38c-0.512,0.512-0.979,1.08-1.38,1.692c-0.401,0.601-0.746,1.247-1.024,1.926
	c-0.278,0.668-0.501,1.369-0.634,2.081c-0.145,0.712-0.223,1.447-0.223,2.17c0,0.723,0.078,1.458,0.223,2.182
	c0.134,0.701,0.356,1.402,0.634,2.081c0.278,0.668,0.623,1.313,1.024,1.914c0.401,0.612,0.868,1.18,1.38,1.692
	c0.512,0.512,1.08,0.979,1.692,1.391c0.601,0.401,1.247,0.746,1.926,1.024c0.668,0.278,1.369,0.49,2.081,0.634
	c0.712,0.145,1.447,0.211,2.17,0.211c0.723,0,1.458-0.067,2.17-0.211c0.712-0.145,1.414-0.356,2.093-0.634
	c0.668-0.278,1.313-0.623,1.914-1.024c0.612-0.412,1.18-0.879,1.692-1.391s0.979-1.08,1.38-1.692
	c0.401-0.601,0.746-1.247,1.024-1.914c0.278-0.679,0.501-1.38,0.634-2.081c0.145-0.723,0.223-1.458,0.223-2.182
	c0-2.927-1.191-5.799-3.261-7.869C94.33,457.739,90.49,456.548,86.873,457.283z"/>
<g>
</g>
<g>
</g>
<g>
</g>
<g>
</g>
<g>
</g>
<g>
</g>
<g>
</g>
<g>
</g>
<g>
</g>
<g>
</g>
<g>
</g>
<g>
</g>
<g>
</g>
<g>
</g>
<g>
</g>
</svg>
