<?xml version="1.0" encoding="iso-8859-1"?>
<!-- Generator: Adobe Illustrator 19.0.0, SVG Export Plug-In . SVG Version: 6.00 Build 0)  -->
<svg version="1.1" id="Layer_1" xmlns="http://www.w3.org/2000/svg" xmlns:xlink="http://www.w3.org/1999/xlink" x="0px" y="0px"
	 viewBox="0 0 512 512" style="enable-background:new 0 0 512 512;" xml:space="preserve">
<rect x="11.13" y="55.652" style="fill:#C8F4DE;" width="489.739" height="445.217"/>
<polygon style="fill:#87DFD6;" points="11.13,55.652 11.13,122.435 55.652,122.435 122.435,122.435 500.87,122.435 500.87,55.652 
	"/>
<path style="fill:#E5E5E5;" d="M284.514,311.652c0-45.891,25.252-85.876,62.614-106.84c-17.691-9.927-38.093-15.595-59.822-15.595
	c-67.619,0-122.435,54.816-122.435,122.435s54.816,122.435,122.435,122.435c21.729,0,42.13-5.668,59.82-15.595
	C309.766,397.528,284.514,357.543,284.514,311.652z"/>
<path d="M86.873,111.527c-0.712,0.145-1.414,0.355-2.081,0.633c-0.679,0.278-1.325,0.624-1.926,1.024
	c-0.612,0.401-1.18,0.868-1.692,1.38c-0.512,0.512-0.979,1.08-1.38,1.693c-0.401,0.6-0.746,1.245-1.024,1.914
	c-0.278,0.678-0.49,1.38-0.634,2.093c-0.145,0.712-0.223,1.447-0.223,2.17c0,0.722,0.078,1.458,0.223,2.17
	c0.145,0.712,0.356,1.414,0.634,2.093c0.278,0.668,0.623,1.313,1.024,1.914c0.401,0.612,0.868,1.18,1.38,1.692
	c0.512,0.512,1.08,0.981,1.692,1.391c0.601,0.391,1.247,0.735,1.926,1.013c0.668,0.278,1.369,0.49,2.081,0.634
	c0.712,0.145,1.447,0.223,2.17,0.223c0.723,0,1.458-0.078,2.17-0.223c0.712-0.145,1.414-0.356,2.081-0.634
	c0.679-0.278,1.325-0.623,1.926-1.013c0.612-0.411,1.18-0.879,1.692-1.391c0.512-0.512,0.979-1.08,1.38-1.692
	c0.401-0.601,0.746-1.247,1.024-1.914c0.278-0.679,0.49-1.38,0.634-2.093c0.145-0.713,0.223-1.448,0.223-2.17
	c0-2.927-1.191-5.799-3.261-7.869C94.33,111.982,90.49,110.792,86.873,111.527z"/>
<path d="M500.87,44.522h-33.391V11.13c0-6.146-4.983-11.13-11.13-11.13s-11.13,4.984-11.13,11.13v33.391h-22.261V11.13
	c0-6.146-4.983-11.13-11.13-11.13c-6.147,0-11.13,4.984-11.13,11.13v33.391h-22.261V11.13c0-6.146-4.983-11.13-11.13-11.13
	c-6.147,0-11.13,4.984-11.13,11.13v33.391h-22.261V11.13c0-6.146-4.983-11.13-11.13-11.13s-11.13,4.984-11.13,11.13v33.391h-22.261
	V11.13c0-6.146-4.983-11.13-11.13-11.13s-11.13,4.984-11.13,11.13v33.391H244.87V11.13c0-6.146-4.983-11.13-11.13-11.13
	s-11.13,4.984-11.13,11.13v33.391h-22.261V11.13c0-6.146-4.983-11.13-11.13-11.13c-6.147,0-11.13,4.984-11.13,11.13v33.391h-22.261
	V11.13c0-6.146-4.983-11.13-11.13-11.13c-6.147,0-11.13,4.984-11.13,11.13v33.391h-22.261V11.13c0-6.146-4.983-11.13-11.13-11.13
	c-6.147,0-11.13,4.984-11.13,11.13v33.391H66.783V11.13C66.783,4.984,61.8,0,55.652,0s-11.13,4.984-11.13,11.13v33.391H11.13
	C4.983,44.522,0,49.506,0,55.652v66.783V500.87C0,507.016,4.983,512,11.13,512H500.87c6.147,0,11.13-4.984,11.13-11.13V122.435
	V55.652C512,49.506,507.017,44.522,500.87,44.522z M22.261,489.739V133.565h33.391c6.147,0,11.13-4.984,11.13-11.13
	c0-6.146-4.983-11.13-11.13-11.13H22.261V66.783h467.478v44.522H122.435c-6.147,0-11.13,4.984-11.13,11.13
	c0,6.146,4.983,11.13,11.13,11.13h367.304v356.174H22.261z"/>
<path d="M352.574,214.518c3.511-1.97,5.683-5.681,5.683-9.707s-2.174-7.737-5.683-9.707c-19.84-11.133-42.408-17.017-65.268-17.017
	c-73.648,0-133.565,59.917-133.565,133.565s59.917,133.565,133.565,133.565c22.859,0,45.428-5.885,65.268-17.018
	c3.511-1.97,5.683-5.681,5.683-9.707s-2.174-7.737-5.683-9.707c-35.117-19.704-56.93-56.924-56.93-97.134
	S317.458,234.223,352.574,214.518z M273.383,311.652c0,41.242,19.118,79.858,50.98,104.968c-11.844,4.173-24.395,6.337-37.055,6.337
	c-61.373,0-111.304-49.93-111.304-111.304s49.931-111.304,111.304-111.304c12.661,0,25.212,2.164,37.055,6.337
	C292.501,231.795,273.383,270.411,273.383,311.652z"/>
<g>
</g>
<g>
</g>
<g>
</g>
<g>
</g>
<g>
</g>
<g>
</g>
<g>
</g>
<g>
</g>
<g>
</g>
<g>
</g>
<g>
</g>
<g>
</g>
<g>
</g>
<g>
</g>
<g>
</g>
</svg>
