<?xml version="1.0" encoding="utf-8"?>
<!-- Generator: Adobe Illustrator 21.0.2, SVG Export Plug-In . SVG Version: 6.00 Build 0)  -->
<svg version="1.1" id="Layer_1" xmlns="http://www.w3.org/2000/svg" xmlns:xlink="http://www.w3.org/1999/xlink" x="0px" y="0px"
	 viewBox="0 0 512 512" style="enable-background:new 0 0 512 512;" xml:space="preserve">
<style type="text/css">
	.st0{fill:#4A7DBA;}
	.st1{fill:#E5E5E5;}
	.st2{fill:#C9D6E2;}
</style>
<rect x="11.1" y="55.7" class="st0" width="489.7" height="445.2"/>
<polygon class="st0" points="11.1,55.7 11.1,122.4 55.7,122.4 122.4,122.4 500.9,122.4 500.9,55.7 "/>
<path class="st1" d="M284.5,311.7c0-45.9,25.3-85.9,62.6-106.8c-17.7-9.9-38.1-15.6-59.8-15.6c-67.6,0-122.4,54.8-122.4,122.4
	s54.8,122.4,122.4,122.4c21.7,0,42.1-5.7,59.8-15.6C309.8,397.5,284.5,357.5,284.5,311.7z"/>
<path class="st2" d="M86.9,111.5c-0.7,0.1-1.4,0.4-2.1,0.6c-0.7,0.3-1.3,0.6-1.9,1c-0.6,0.4-1.2,0.9-1.7,1.4s-1,1.1-1.4,1.7
	c-0.4,0.6-0.7,1.2-1,1.9c-0.3,0.7-0.5,1.4-0.6,2.1c-0.1,0.7-0.2,1.4-0.2,2.2c0,0.7,0.1,1.5,0.2,2.2s0.4,1.4,0.6,2.1
	c0.3,0.7,0.6,1.3,1,1.9c0.4,0.6,0.9,1.2,1.4,1.7c0.5,0.5,1.1,1,1.7,1.4c0.6,0.4,1.2,0.7,1.9,1c0.7,0.3,1.4,0.5,2.1,0.6
	c0.7,0.1,1.4,0.2,2.2,0.2s1.5-0.1,2.2-0.2s1.4-0.4,2.1-0.6c0.7-0.3,1.3-0.6,1.9-1c0.6-0.4,1.2-0.9,1.7-1.4c0.5-0.5,1-1.1,1.4-1.7
	c0.4-0.6,0.7-1.2,1-1.9c0.3-0.7,0.5-1.4,0.6-2.1c0.1-0.7,0.2-1.4,0.2-2.2c0-2.9-1.2-5.8-3.3-7.9C94.3,112,90.5,110.8,86.9,111.5z"/>
<path class="st2" d="M84.8,132.7c0.7,0.3,2.4,0.5,3.1,0.6c0.7,0.1,0.4,0.2,1.2,0.2"/>
<path class="st2" d="M500.9,44.5h-33.4V11.1c0-6.1-5-11.1-11.1-11.1s-11.1,5-11.1,11.1v33.4H423V11.1C423,5,418,0,411.8,0
	s-11.1,5-11.1,11.1v33.4h-22.3V11.1c0-6.1-5-11.1-11.1-11.1s-11.1,5-11.1,11.1v33.4h-22.3V11.1c0-6.1-5-11.1-11.1-11.1
	s-11.1,5-11.1,11.1v33.4h-22.3V11.1c0-6.1-5-11.1-11.1-11.1s-11.1,5-11.1,11.1v33.4h-22.3V11.1c0-6.1-5-11.1-11.1-11.1
	s-11.1,5-11.1,11.1v33.4h-22.3V11.1c0-6.1-5-11.1-11.1-11.1s-11.1,5-11.1,11.1v33.4h-22.3V11.1c0-6.1-5-11.1-11.1-11.1
	s-11.1,5-11.1,11.1v33.4h-22.3V11.1c0-6.1-5-11.1-11.1-11.1C94,0,89,5,89,11.1v33.4H66.8V11.1C66.8,5,61.8,0,55.7,0
	S44.5,5,44.5,11.1v33.4H11.1C5,44.5,0,49.5,0,55.7v66.8v378.4C0,507,5,512,11.1,512h489.7c6.1,0,11.1-5,11.1-11.1V122.4V55.7
	C512,49.5,507,44.5,500.9,44.5z M22.3,489.7V133.6h33.4c6.1,0,11.1-5,11.1-11.1s-5-11.1-11.1-11.1H22.3V66.8h467.5v44.5H122.4
	c-6.1,0-11.1,5-11.1,11.1c0,6.1,5,11.1,11.1,11.1h367.3v356.2H22.3z"/>
</svg>
