<?xml version="1.0" encoding="iso-8859-1"?>
<!-- Generator: Adobe Illustrator 19.0.0, SVG Export Plug-In . SVG Version: 6.00 Build 0)  -->
<svg version="1.1" id="Layer_1" xmlns="http://www.w3.org/2000/svg" xmlns:xlink="http://www.w3.org/1999/xlink" x="0px" y="0px"
	 viewBox="0 0 512 512" style="enable-background:new 0 0 512 512;" xml:space="preserve">
<polygon style="fill:#4A7DBA;" points="500.881,144.81 473.672,211.524 432.854,211.524 432.854,256.001 399.452,456.144 
	392.036,500.62 119.952,500.62 112.536,456.144 79.134,256.001 79.134,211.524 38.327,211.524 11.119,144.81 "/>
<circle style="fill:#87DFD6;" cx="256.005" cy="354.899" r="54.418"/>
<polygon style="fill:#C8F4DE;" points="399.452,456.144 392.036,500.62 119.952,500.62 112.536,456.144 "/>
<polygon style="fill:#FFFE9F;" points="322.709,144.81 189.28,144.81 144.803,11.381 367.185,11.381 "/>
<path d="M153.754,200.627c-0.712,0.146-1.412,0.356-2.09,0.634c-0.667,0.278-1.312,0.624-1.912,1.023
	c-0.612,0.4-1.179,0.867-1.69,1.379c-2.068,2.068-3.258,4.937-3.258,7.861c0,0.722,0.078,1.457,0.222,2.167
	c0.133,0.713,0.356,1.413,0.634,2.092c0.278,0.667,0.623,1.312,1.023,1.912c0.4,0.612,0.867,1.179,1.379,1.69
	c0.511,0.511,1.079,0.978,1.69,1.379c0.6,0.4,1.245,0.745,1.912,1.023c0.678,0.289,1.379,0.5,2.09,0.645
	c0.712,0.145,1.445,0.211,2.168,0.211c2.924,0,5.793-1.19,7.861-3.259c0.511-0.511,0.978-1.079,1.379-1.69
	c0.4-0.6,0.745-1.245,1.023-1.912c0.278-0.678,0.5-1.379,0.634-2.091c0.145-0.712,0.222-1.445,0.222-2.167
	c0-2.924-1.19-5.793-3.258-7.861C161.204,201.084,157.357,199.894,153.754,200.627z"/>
<path d="M256,289.358c-36.137,0-65.537,29.4-65.537,65.537s29.4,65.537,65.537,65.537s65.537-29.4,65.537-65.537
	S292.137,289.358,256,289.358z M256,398.195c-23.875,0-43.299-19.424-43.299-43.299c0-23.875,19.424-43.299,43.299-43.299
	s43.299,19.424,43.299,43.299C299.299,378.771,279.875,398.195,256,398.195z"/>
<path d="M510.109,138.608c-2.065-3.073-5.525-4.917-9.228-4.917H338.135l39.598-118.794c1.131-3.39,0.562-7.117-1.529-10.017
	c-2.089-2.9-5.446-4.618-9.02-4.618H144.803c-3.574,0-6.931,1.718-9.02,4.618c-2.09,2.899-2.659,6.627-1.529,10.017l39.598,118.794
	H11.119c-3.703,0-7.163,1.844-9.228,4.917c-2.066,3.073-2.466,6.973-1.067,10.401l27.209,66.714
	c1.707,4.185,5.776,6.921,10.295,6.921h29.688v33.357c0,0.614,0.05,1.226,0.151,1.83l33.402,200.141l7.416,44.476
	c0.894,5.361,5.533,9.29,10.968,9.29h272.084c5.435,0,10.074-3.929,10.968-9.29l40.818-244.617c0.101-0.605,0.151-1.218,0.151-1.83
	v-33.357h29.698c4.519,0,8.589-2.735,10.296-6.921l27.208-66.714C512.575,145.58,512.175,141.681,510.109,138.608z M160.231,22.5
	h191.527l-37.063,111.191H197.294L160.231,22.5z M129.371,489.501l-3.708-22.238h260.663l-3.708,22.238H129.371z M466.199,200.405
	h-33.345l0,0l0,0H189.281c-6.141,0-11.119,4.979-11.119,11.119s4.978,11.119,11.119,11.119h232.455v32.435L390.04,445.025H121.949
	L90.253,255.079v-32.435h32.312c6.141,0,11.119-4.979,11.119-11.119s-4.978-11.119-11.119-11.119h-43.43h-0.001l0,0H45.8
	l-18.139-44.476H189.28h133.429h161.629L466.199,200.405z"/>
<path d="M189.28,267.12h133.429c6.141,0,11.119-4.979,11.119-11.119s-4.978-11.119-11.119-11.119H189.28
	c-6.141,0-11.119,4.979-11.119,11.119S183.139,267.12,189.28,267.12z"/>
<g>
</g>
<g>
</g>
<g>
</g>
<g>
</g>
<g>
</g>
<g>
</g>
<g>
</g>
<g>
</g>
<g>
</g>
<g>
</g>
<g>
</g>
<g>
</g>
<g>
</g>
<g>
</g>
<g>
</g>
</svg>
