<?xml version="1.0" encoding="iso-8859-1"?>
<!-- Generator: Adobe Illustrator 19.0.0, SVG Export Plug-In . SVG Version: 6.00 Build 0)  -->
<svg version="1.1" id="Layer_1" xmlns="http://www.w3.org/2000/svg" xmlns:xlink="http://www.w3.org/1999/xlink" x="0px" y="0px"
	 viewBox="0 0 511.999 511.999" style="enable-background:new 0 0 511.999 511.999;" xml:space="preserve">
<circle style="fill:#E5E5E5;" cx="345.043" cy="255.999" r="155.826"/>
<g>
	<circle style="fill:#AFAFAF;" cx="289.39" cy="322.782" r="22.261"/>
	<circle style="fill:#AFAFAF;" cx="400.695" cy="200.347" r="33.391"/>
</g>
<path style="fill:#FCFBCA;" d="M189.217,255.999c0-64.23,38.864-119.375,94.356-143.224c-13.815-3.036-26.499-10.387-36.046-21.241
	c-19.89-22.618-36.049-35.882-36.049-35.882s-16.159,13.264-36.05,35.882c-13.744,15.629-33.985,24.013-54.754,22.679
	c-30.058-1.929-50.864,0.118-50.864,0.118s-2.047,20.805-0.118,50.864c1.332,20.769-7.051,41.01-22.679,54.754
	c-22.618,19.891-35.882,36.05-35.882,36.05s13.264,16.159,35.882,36.05c15.628,13.744,24.013,33.985,22.679,54.754
	c-1.929,30.058,0.118,50.864,0.118,50.864s20.805,2.047,50.864,0.118c20.769-1.332,41.01,7.051,54.754,22.679
	c19.891,22.618,36.05,35.882,36.05,35.882s16.159-13.264,36.05-35.882c9.547-10.855,22.23-18.205,36.046-21.241
	C228.081,375.374,189.217,320.228,189.217,255.999z"/>
<path style="fill:#FFFE9F;" d="M189.217,255.999c0-41.598,16.302-79.388,42.863-107.333c-6.673-1.273-13.558-1.948-20.602-1.948
	c-60.354,0-109.281,48.926-109.281,109.281c0,60.354,48.927,109.281,109.281,109.281c7.043,0,13.929-0.674,20.602-1.948
	C205.518,335.387,189.217,297.597,189.217,255.999z"/>
<path d="M345.043,89.043c-22,0-43.016,4.287-62.268,12.054c-10.444-2.932-19.691-8.727-26.89-16.914
	c-20.255-23.032-36.658-36.569-37.346-37.134c-4.105-3.369-10.02-3.369-14.123,0c-0.688,0.565-17.09,14.102-37.347,37.136
	c-11.39,12.954-28.465,20.029-45.683,18.922c-30.606-1.963-51.78,0.061-52.666,0.149c-5.285,0.52-9.466,4.701-9.987,9.987
	c-0.087,0.886-2.113,22.057-0.149,52.666c1.104,17.214-5.969,34.293-18.922,45.683c-23.032,20.255-36.57,36.658-37.134,37.346
	c-3.369,4.105-3.369,10.019,0,14.123c0.565,0.689,14.103,17.091,37.136,37.346c12.952,11.391,20.026,28.468,18.922,45.683
	c-1.963,30.609,0.062,51.78,0.149,52.666c0.521,5.286,4.703,9.468,9.987,9.987c0.886,0.087,22.059,2.111,52.666,0.149
	c17.208-1.11,34.292,5.969,45.684,18.923c20.255,23.032,36.658,36.569,37.346,37.134c2.051,1.686,4.557,2.529,7.061,2.529
	s5.01-0.843,7.062-2.528c0.688-0.565,17.09-14.102,37.347-37.136c7.198-8.185,16.444-13.982,26.889-16.913
	c19.251,7.767,40.267,12.054,62.267,12.054c92.06,0,166.957-74.897,166.957-166.957S437.102,89.043,345.043,89.043z
	 M178.135,259.906c0.009,0.363,0.021,0.723,0.031,1.086c0.008,0.277,0.016,0.553,0.024,0.83c0.023,0.697,0.053,1.394,0.087,2.089
	c0.018,0.393,0.037,0.785,0.058,1.175c0.029,0.533,0.059,1.067,0.092,1.601c0.011,0.184,0.026,0.366,0.038,0.55
	c0.026,0.385,0.051,0.769,0.08,1.154c0.013,0.183,0.023,0.366,0.038,0.55c0.105,1.353,0.225,2.704,0.361,4.051
	c0.008,0.073,0.017,0.147,0.024,0.221c0.13,1.273,0.278,2.543,0.437,3.811c0.019,0.151,0.039,0.302,0.058,0.453
	c0.007,0.055,0.013,0.109,0.021,0.163c0,0.002,0.001,0.006,0.001,0.009c2.95,22.781,10.536,44.552,22.283,64.121
	c0.141,0.236,0.283,0.473,0.426,0.708c0.752,1.239,1.517,2.471,2.302,3.691c0.331,0.515,0.672,1.025,1.008,1.538
	c0.406,0.617,0.817,1.231,1.232,1.843c1.045,1.546,2.115,3.075,3.212,4.587c-53.418-0.82-96.621-44.528-96.621-98.138
	s43.203-97.319,96.621-98.138c-1.097,1.51-2.166,3.04-3.212,4.587c-0.415,0.612-0.825,1.227-1.232,1.843
	c-0.336,0.512-0.678,1.022-1.008,1.538c-0.786,1.221-1.55,2.452-2.302,3.691c-0.142,0.235-0.284,0.472-0.426,0.708
	c-11.747,19.57-19.332,41.341-22.283,64.121c0,0.003,0,0.006-0.001,0.009c-0.007,0.055-0.013,0.109-0.021,0.163
	c-0.019,0.15-0.039,0.302-0.058,0.453c-0.159,1.268-0.306,2.538-0.437,3.811c-0.008,0.075-0.017,0.148-0.024,0.222
	c-0.136,1.348-0.257,2.698-0.361,4.051c-0.013,0.184-0.024,0.367-0.038,0.55c-0.028,0.385-0.053,0.769-0.08,1.154
	c-0.012,0.184-0.026,0.366-0.038,0.55c-0.035,0.533-0.065,1.066-0.092,1.601c-0.021,0.392-0.039,0.784-0.058,1.175
	c-0.032,0.696-0.062,1.392-0.087,2.089c-0.01,0.277-0.017,0.553-0.024,0.83c-0.011,0.362-0.023,0.723-0.031,1.086
	c-0.03,1.3-0.049,2.602-0.049,3.907C178.086,257.306,178.106,258.606,178.135,259.906z M239.17,413.114
	c-11.251,12.793-21.327,22.548-27.696,28.394c-6.352-5.828-16.398-15.556-27.688-28.394c-14.829-16.864-36.558-26.595-58.912-26.595
	c-1.635,0-3.273,0.051-4.914,0.157c-16.997,1.091-31.015,0.864-39.656,0.494c-0.37-8.639-0.595-22.658,0.494-39.657
	c1.544-24.051-8.34-47.91-26.437-63.824c-12.791-11.248-22.544-21.321-28.39-27.69c5.848-6.37,15.602-16.443,28.392-27.691
	c18.097-15.914,27.981-39.773,26.437-63.825c-1.091-17-0.864-31.018-0.494-39.656c8.642-0.368,22.658-0.595,39.656,0.494
	c24.051,1.544,47.912-8.34,63.825-26.437c11.248-12.791,21.321-22.545,27.691-28.392c6.371,5.848,16.443,15.6,27.691,28.39
	c5.266,5.988,11.314,11.066,17.975,15.133c-10.573,6.54-20.277,14.182-28.998,22.729c-5.521-0.766-11.105-1.158-16.669-1.158
	c-66.394,0-120.411,54.016-120.411,120.411S145.083,376.41,211.477,376.41c5.564,0,11.147-0.392,16.669-1.158
	c8.721,8.548,18.425,16.189,28.998,22.729C250.483,402.048,244.435,407.126,239.17,413.114z M345.043,400.695
	c-62.191,0-115.341-39.442-135.759-94.622c-0.124-0.337-0.246-0.674-0.367-1.013c-0.433-1.198-0.848-2.404-1.251-3.616
	c-0.299-0.907-0.599-1.814-0.88-2.728c-0.194-0.626-0.376-1.255-0.562-1.885c-0.282-0.958-0.555-1.921-0.817-2.887
	c-0.13-0.479-0.264-0.956-0.39-1.437c-0.376-1.446-0.731-2.898-1.064-4.359c-0.076-0.332-0.145-0.666-0.218-0.997
	c-0.286-1.3-0.555-2.607-0.806-3.918c-0.059-0.307-0.12-0.613-0.177-0.922c-0.291-1.578-0.559-3.163-0.798-4.756
	c-0.028-0.185-0.051-0.371-0.078-0.555c-0.209-1.432-0.395-2.872-0.562-4.315c-0.037-0.323-0.076-0.644-0.111-0.967
	c-0.174-1.594-0.325-3.194-0.445-4.801c-0.001-0.023-0.004-0.047-0.006-0.07c-0.009-0.125-0.014-0.25-0.023-0.374
	c-0.106-1.468-0.185-2.942-0.246-4.418c-0.017-0.406-0.033-0.811-0.047-1.219c-0.051-1.607-0.088-3.219-0.088-4.836
	s0.037-3.229,0.09-4.837c0.013-0.407,0.03-0.813,0.047-1.219c0.061-1.477,0.14-2.95,0.246-4.418c0.009-0.125,0.014-0.25,0.023-0.374
	c0.001-0.023,0.004-0.047,0.006-0.07c0.12-1.606,0.273-3.206,0.445-4.801c0.035-0.323,0.073-0.644,0.111-0.967
	c0.167-1.444,0.353-2.883,0.562-4.315c0.027-0.185,0.05-0.371,0.078-0.555c0.239-1.593,0.506-3.178,0.798-4.756
	c0.057-0.307,0.118-0.614,0.177-0.922c0.25-1.311,0.52-2.618,0.806-3.918c0.073-0.332,0.142-0.666,0.218-0.997
	c0.332-1.46,0.688-2.913,1.064-4.359c0.126-0.481,0.259-0.958,0.39-1.437c0.263-0.966,0.535-1.928,0.817-2.887
	c0.186-0.63,0.368-1.26,0.562-1.885c0.282-0.914,0.581-1.821,0.88-2.728c0.402-1.212,0.818-2.418,1.251-3.616
	c0.121-0.338,0.244-0.676,0.367-1.013c20.415-55.179,73.565-94.621,135.757-94.621c79.786,0,144.696,64.91,144.696,144.696
	S424.829,400.695,345.043,400.695z"/>
<path d="M345.043,133.564c-36.021,0-70.059,15.766-93.388,43.254c-3.977,4.687-3.403,11.71,1.284,15.688
	c2.094,1.776,4.651,2.643,7.197,2.643c3.155,0,6.29-1.335,8.493-3.929c19.089-22.495,46.941-35.396,76.414-35.396
	c6.146,0,11.13-4.983,11.13-11.13S351.189,133.564,345.043,133.564z"/>
<path d="M238.776,221.772c1.382,0.568,2.814,0.836,4.221,0.836c4.338,0,8.455-2.553,10.249-6.783
	c0.027-0.063,0.058-0.135,0.08-0.189c2.333-5.687-0.386-12.189-6.073-14.522c-5.648-2.318-12.092,0.346-14.47,5.946
	c-0.027,0.063-0.058,0.136-0.08,0.19C230.371,212.938,233.089,219.439,238.776,221.772z"/>
<path d="M267.13,267.13c0-12.275-9.986-22.261-22.261-22.261c-12.275,0-22.261,9.986-22.261,22.261
	c0,12.275,9.986,22.261,22.261,22.261C257.143,289.39,267.13,279.404,267.13,267.13z"/>
<path d="M289.39,289.39c-18.412,0-33.391,14.979-33.391,33.391s14.979,33.391,33.391,33.391c18.412,0,33.391-14.979,33.391-33.391
	S307.802,289.39,289.39,289.39z M289.39,333.912c-6.137,0-11.13-4.993-11.13-11.13s4.993-11.13,11.13-11.13
	c6.137,0,11.13,4.993,11.13,11.13S295.528,333.912,289.39,333.912z"/>
<path d="M400.695,155.825c-24.549,0-44.522,19.972-44.522,44.522s19.972,44.522,44.522,44.522s44.522-19.972,44.522-44.522
	S425.244,155.825,400.695,155.825z M400.695,222.608c-12.275,0-22.261-9.986-22.261-22.261s9.986-22.261,22.261-22.261
	s22.261,9.986,22.261,22.261S412.969,222.608,400.695,222.608z"/>
<g>
</g>
<g>
</g>
<g>
</g>
<g>
</g>
<g>
</g>
<g>
</g>
<g>
</g>
<g>
</g>
<g>
</g>
<g>
</g>
<g>
</g>
<g>
</g>
<g>
</g>
<g>
</g>
<g>
</g>
</svg>
