<?xml version="1.0" encoding="utf-8"?>
<!-- Generator: Adobe Illustrator 21.0.2, SVG Export Plug-In . SVG Version: 6.00 Build 0)  -->
<svg version="1.1" id="Layer_1" xmlns="http://www.w3.org/2000/svg" xmlns:xlink="http://www.w3.org/1999/xlink" x="0px" y="0px"
	 viewBox="0 0 512 512" style="enable-background:new 0 0 512 512;" xml:space="preserve">
<style type="text/css">
	.st0{fill:#4A7DBA;}
	.st1{fill:#C9D6E2;}
</style>
<path class="st0" d="M367.3,167H144.7v-44.5C144.7,61,194.5,11.1,256,11.1l0,0c61.5,0,111.3,49.8,111.3,111.3L367.3,167L367.3,167z"
	/>
<g>
	<path class="st0" d="M256,500.9L256,500.9c-24.6,0-44.5-19.9-44.5-44.5v-22.3h89v22.3C300.5,480.9,280.6,500.9,256,500.9z"/>
	<path class="st0" d="M400.7,233.7h-33.4V167h33.4c18.4,0,33.4,14.9,33.4,33.4l0,0C434.1,218.8,419.1,233.7,400.7,233.7z"/>
	<path class="st0" d="M111.3,233.7h33.4V167h-33.4c-18.4,0-33.4,14.9-33.4,33.4l0,0C77.9,218.8,92.9,233.7,111.3,233.7z"/>
</g>
<polygon class="st0" points="144.7,167 144.7,300.5 144.7,367.3 144.7,434.1 367.3,434.1 367.3,167 "/>
<path class="st1" d="M135.4,340.1c0.4,0.6,0.9,1.2,1.4,1.7c0.5,0.5,1.1,1,1.7,1.4c0.6,0.4,1.2,0.7,1.9,1c0.7,0.3,1.4,0.5,2.1,0.6
	c0.7,0.1,1.4,0.2,2.2,0.2c0.7,0,1.5-0.1,2.2-0.2c0.7-0.1,1.4-0.4,2.1-0.6c0.7-0.3,1.3-0.6,1.9-1c0.6-0.4,1.2-0.9,1.7-1.4
	s1-1.1,1.4-1.7c0.4-0.6,0.7-1.2,1-1.9c0.3-0.7,0.5-1.4,0.6-2.1c0.1-0.7,0.2-1.4,0.2-2.2s-0.1-1.5-0.2-2.2c-0.1-0.7-0.4-1.4-0.6-2.1
	c-0.3-0.7-0.6-1.3-1-1.9c-0.4-0.6-0.9-1.2-1.4-1.7s-1.1-1-1.7-1.4c-0.6-0.4-1.2-0.7-1.9-1c-0.7-0.3-1.4-0.5-2.1-0.6
	c-1.4-0.3-2.9-0.3-4.3,0c-0.7,0.1-1.4,0.4-2.1,0.6c-0.7,0.3-1.3,0.6-1.9,1c-0.6,0.4-1.2,0.9-1.7,1.4c-0.5,0.5-1,1.1-1.4,1.7
	c-0.4,0.6-0.7,1.2-1,1.9c-0.3,0.7-0.5,1.4-0.6,2.1c-0.1,0.7-0.2,1.4-0.2,2.2s0.1,1.5,0.2,2.2s0.4,1.4,0.6,2.1
	C134.7,338.8,135,339.5,135.4,340.1z"/>
<path class="st1" d="M211.5,89c-12.3,0-22.3,10-22.3,22.3s10,22.3,22.3,22.3s22.3-10,22.3-22.3S223.8,89,211.5,89z"/>
<path class="st1" d="M300.5,89c-12.3,0-22.3,10-22.3,22.3s10,22.3,22.3,22.3s22.3-10,22.3-22.3S312.8,89,300.5,89z"/>
<path class="st1" d="M500.9,333.9c-12.3,0-22.3-10-22.3-22.3s10-22.3,22.3-22.3c6.1,0,11.1-5,11.1-11.1s-5-11.1-11.1-11.1
	c-20.4,0-37.6,13.8-42.9,32.6c-26.2-4.5-46.2-27.4-46.2-54.8v-1.4c19.2-5,33.4-22.4,33.4-43.1c0-24.5-20-44.5-44.5-44.5h-22.3v-33.4
	C378.4,54.9,323.5,0,256,0S133.6,54.9,133.6,122.4v33.4h-22.3c-24.5,0-44.5,20-44.5,44.5c0,20.7,14.2,38.2,33.4,43.1v1.4
	c0,27.5-20,50.3-46.2,54.8c-5.2-18.8-22.5-32.6-42.9-32.6c-6.1,0-11.1,5-11.1,11.1s5,11.1,11.1,11.1c12.3,0,22.3,10,22.3,22.3
	s-10,22.3-22.3,22.3C5,333.9,0,338.9,0,345s5,11.1,11.1,11.1c20.9,0,38.5-14.5,43.3-34c38.3-4.9,68-37.6,68-77.3h11.1v55.7
	c0,6.1,5,11.1,11.1,11.1s11.1-5,11.1-11.1v-66.8v-55.7h200.3v55.7V423h-55.7h-89h-55.7v-55.7c0-6.1-5-11.1-11.1-11.1
	s-11.1,5-11.1,11.1v66.8c0,6.1,5,11.1,11.1,11.1h55.7v11.1c0,30.7,25,55.7,55.7,55.7s55.7-25,55.7-55.7v-11.1h55.7
	c6.1,0,11.1-5,11.1-11.1V244.9h11.1c0,39.6,29.7,72.4,68,77.3c4.7,19.5,22.3,34,43.3,34c6.1,0,11.1-5,11.1-11.1
	C512,338.9,507,333.9,500.9,333.9z M289.4,456.3c0,18.4-15,33.4-33.4,33.4s-33.4-15-33.4-33.4v-11.1h66.8L289.4,456.3L289.4,456.3z
	 M111.3,222.6c-12.3,0-22.3-10-22.3-22.3s10-22.3,22.3-22.3h22.3v44.5H111.3z M155.8,155.8v-33.4c0-55.2,44.9-100.2,100.2-100.2
	s100.2,44.9,100.2,100.2v33.4H155.8z M378.4,222.6v-44.5h22.3c12.3,0,22.3,10,22.3,22.3s-10,22.3-22.3,22.3H378.4z"/>
<path class="st1" d="M322.8,222.6c6.1,0,11.1-5,11.1-11.1s-5-11.1-11.1-11.1h-44.5c-6.1,0-11.1,5-11.1,11.1s5,11.1,11.1,11.1H322.8z
	"/>
</svg>
