<?xml version="1.0" encoding="iso-8859-1"?>
<!-- Generator: Adobe Illustrator 19.0.0, SVG Export Plug-In . SVG Version: 6.00 Build 0)  -->
<svg version="1.1" id="Layer_1" xmlns="http://www.w3.org/2000/svg" xmlns:xlink="http://www.w3.org/1999/xlink" x="0px" y="0px"
	 viewBox="0 0 512 512" style="enable-background:new 0 0 512 512;" xml:space="preserve">
<path style="fill:#DFF5F2;" d="M367.304,166.957H144.696v-44.522C144.696,60.964,194.528,11.13,256,11.13l0,0
	c61.471,0,111.304,49.832,111.304,111.304V166.957z"/>
<g>
	<path style="fill:#87DFD6;" d="M256,500.87L256,500.87c-24.588,0-44.522-19.933-44.522-44.522v-22.261h89.043v22.261
		C300.522,480.936,280.588,500.87,256,500.87z"/>
	<path style="fill:#87DFD6;" d="M400.696,233.739h-33.391v-66.783h33.391c18.442,0,33.391,14.949,33.391,33.391l0,0
		C434.087,218.79,419.138,233.739,400.696,233.739z"/>
	<path style="fill:#87DFD6;" d="M111.304,233.739h33.391v-66.783h-33.391c-18.442,0-33.391,14.949-33.391,33.391l0,0
		C77.913,218.79,92.862,233.739,111.304,233.739z"/>
</g>
<polygon style="fill:#4A7DBA;" points="144.696,166.957 144.696,300.522 144.696,367.304 144.696,434.087 367.304,434.087 
	367.304,166.957 "/>
<path d="M135.446,340.09c0.401,0.612,0.868,1.18,1.38,1.692c0.512,0.512,1.08,0.979,1.692,1.38c0.601,0.401,1.247,0.746,1.926,1.024
	c0.668,0.278,1.369,0.501,2.081,0.646c0.712,0.145,1.447,0.211,2.17,0.211c0.723,0,1.458-0.067,2.17-0.211
	c0.712-0.145,1.414-0.367,2.081-0.646c0.679-0.278,1.325-0.623,1.926-1.024c0.612-0.401,1.18-0.868,1.692-1.38
	s0.979-1.08,1.38-1.692c0.401-0.601,0.746-1.247,1.024-1.926c0.278-0.668,0.501-1.369,0.634-2.081
	c0.145-0.712,0.223-1.447,0.223-2.17s-0.078-1.458-0.223-2.17c-0.134-0.712-0.356-1.414-0.634-2.081
	c-0.278-0.679-0.623-1.325-1.024-1.926c-0.401-0.612-0.868-1.18-1.38-1.692s-1.08-0.979-1.692-1.38
	c-0.601-0.401-1.247-0.746-1.926-1.024c-0.668-0.278-1.369-0.501-2.081-0.634c-1.436-0.289-2.905-0.289-4.341,0
	c-0.712,0.134-1.414,0.356-2.081,0.634c-0.679,0.278-1.325,0.623-1.926,1.024c-0.612,0.401-1.18,0.868-1.692,1.38
	c-0.512,0.512-0.979,1.08-1.38,1.692c-0.401,0.601-0.746,1.247-1.024,1.926c-0.278,0.668-0.49,1.369-0.634,2.081
	c-0.145,0.712-0.223,1.447-0.223,2.17s0.078,1.458,0.223,2.17c0.145,0.712,0.356,1.414,0.634,2.081
	C134.701,338.844,135.046,339.489,135.446,340.09z"/>
<path d="M211.478,89.043c-12.275,0-22.261,9.986-22.261,22.261s9.986,22.261,22.261,22.261s22.261-9.986,22.261-22.261
	S223.753,89.043,211.478,89.043z"/>
<path d="M300.522,89.043c-12.275,0-22.261,9.986-22.261,22.261s9.986,22.261,22.261,22.261s22.261-9.986,22.261-22.261
	S312.796,89.043,300.522,89.043z"/>
<path d="M500.87,333.913c-12.275,0-22.261-9.986-22.261-22.261s9.986-22.261,22.261-22.261c6.147,0,11.13-4.983,11.13-11.13
	s-4.983-11.13-11.13-11.13c-20.408,0-37.64,13.806-42.878,32.565c-26.181-4.517-46.166-27.374-46.166-54.826v-1.409
	c19.181-4.955,33.391-22.406,33.391-43.113c0-24.549-19.972-44.522-44.522-44.522h-22.261v-33.391C378.435,54.924,323.511,0,256,0
	S133.565,54.924,133.565,122.435v33.391h-22.261c-24.549,0-44.522,19.972-44.522,44.522c0,20.707,14.21,38.157,33.391,43.113v1.409
	c0,27.452-19.985,50.31-46.166,54.826c-5.238-18.759-22.47-32.565-42.878-32.565c-6.147,0-11.13,4.983-11.13,11.13
	s4.983,11.13,11.13,11.13c12.275,0,22.261,9.986,22.261,22.261s-9.986,22.261-22.261,22.261c-6.147,0-11.13,4.983-11.13,11.13
	c0,6.147,4.983,11.13,11.13,11.13c20.939,0,38.536-14.533,43.264-34.039c38.313-4.87,68.04-37.65,68.04-77.265h11.13v55.652
	c0,6.147,4.983,11.13,11.13,11.13c6.147,0,11.13-4.983,11.13-11.13v-66.783v-55.652h200.348v55.652v189.217h-55.652h-89.043h-55.652
	v-55.652c0-6.147-4.983-11.13-11.13-11.13c-6.147,0-11.13,4.983-11.13,11.13v66.783c0,6.147,4.983,11.13,11.13,11.13h55.652v11.13
	C200.348,487.034,225.313,512,256,512s55.652-24.966,55.652-55.652v-11.13h55.652c6.147,0,11.13-4.983,11.13-11.13V244.87h11.13
	c0,39.615,29.727,72.396,68.04,77.265c4.728,19.506,22.325,34.039,43.264,34.039c6.147,0,11.13-4.983,11.13-11.13
	C512,338.896,507.017,333.913,500.87,333.913z M289.391,456.348c0,18.412-14.979,33.391-33.391,33.391s-33.391-14.979-33.391-33.391
	v-11.13h66.783V456.348z M111.304,222.609c-12.275,0-22.261-9.986-22.261-22.261s9.986-22.261,22.261-22.261h22.261v44.522H111.304z
	 M155.826,155.826v-33.391c0-55.236,44.938-100.174,100.174-100.174s100.174,44.938,100.174,100.174v33.391H155.826z
	 M378.435,222.609v-44.522h22.261c12.275,0,22.261,9.986,22.261,22.261s-9.986,22.261-22.261,22.261H378.435z"/>
<path d="M322.783,222.609c6.147,0,11.13-4.983,11.13-11.13c0-6.147-4.983-11.13-11.13-11.13h-44.522
	c-6.147,0-11.13,4.983-11.13,11.13c0,6.147,4.983,11.13,11.13,11.13H322.783z"/>
<g>
</g>
<g>
</g>
<g>
</g>
<g>
</g>
<g>
</g>
<g>
</g>
<g>
</g>
<g>
</g>
<g>
</g>
<g>
</g>
<g>
</g>
<g>
</g>
<g>
</g>
<g>
</g>
<g>
</g>
</svg>
