<?xml version="1.0" encoding="iso-8859-1"?>
<!-- Generator: Adobe Illustrator 19.0.0, SVG Export Plug-In . SVG Version: 6.00 Build 0)  -->
<svg version="1.1" id="Layer_1" xmlns="http://www.w3.org/2000/svg" xmlns:xlink="http://www.w3.org/1999/xlink" x="0px" y="0px"
	 viewBox="0 0 512 512" style="enable-background:new 0 0 512 512;" xml:space="preserve">
<rect x="17.868" y="255.437" transform="matrix(-0.9239 0.3827 -0.3827 -0.9239 185.9732 518.4143)" style="fill:#87DFD6;" width="47.116" height="44.533"/>
<path style="fill:#C8F4DE;" d="M211.463,233.355c0-17.418,10.005-32.49,24.576-39.808l-11.529-27.834L50.4,237.832l25.563,61.714
	l136.555-56.564C211.834,239.881,211.463,236.663,211.463,233.355z"/>
<path style="fill:#87DFD6;" d="M453.029,71.057l25.563,61.714c18.03-7.468,26.923-27.337,19.865-44.379
	C491.396,71.351,471.059,63.589,453.029,71.057z"/>
<path style="fill:#4A7DBA;" d="M255.995,188.823c19.753,0,36.492,12.866,42.321,30.672l184.536-76.437l-34.084-82.284
	L220.25,155.428l15.789,38.12C242.043,190.531,248.817,188.823,255.995,188.823z"/>
<circle style="fill:#FFFE9F;" cx="255.994" cy="233.359" r="44.532"/>
<path d="M508.741,84.131c-7.99-19.289-28.635-29.745-49.19-26.419l-0.498-1.2c-1.13-2.728-3.296-4.894-6.025-6.024
	c-2.728-1.131-5.793-1.13-8.52-0.001l-228.518,94.654c-5.68,2.354-8.378,8.866-6.025,14.546L46.141,227.545
	c-5.68,2.354-8.379,8.866-6.025,14.546L6.873,255.86c-2.728,1.131-4.895,3.298-6.025,6.025c-1.13,2.728-1.13,5.794,0,8.521
	l17.042,41.142c1.776,4.287,5.921,6.876,10.29,6.876c1.419,0,2.863-0.274,4.256-0.851l33.242-13.769l0,0
	c1.13,2.728,3.297,4.894,6.025,6.025c1.364,0.564,2.812,0.847,4.261,0.847c1.448,0,2.897-0.283,4.261-0.847l125.747-52.086
	c3.314,6.771,7.97,12.766,13.609,17.657l-81.805,164.688H122.41c-6.149,0-11.133,4.985-11.133,11.133s4.984,11.133,11.133,11.133
	h22.219c0.012,0,0.026,0.002,0.038,0.002c0.011,0,0.021-0.002,0.031-0.002h22.243c6.149,0,11.133-4.985,11.133-11.133
	s-4.984-11.133-11.133-11.133h-4.305l76.363-153.733c1.913,0.615,3.867,1.137,5.863,1.543v51.994
	c0,6.148,4.984,11.133,11.133,11.133s11.133-4.985,11.133-11.133V287.9c2.003-0.407,3.962-0.931,5.882-1.549l76.366,153.74h-4.305
	c-6.149,0-11.133,4.985-11.133,11.133s4.984,11.133,11.133,11.133h22.243c0.011,0,0.021,0.002,0.031,0.002
	c0.012,0,0.026-0.002,0.038-0.002h22.219c6.149,0,11.133-4.985,11.133-11.133s-4.984-11.133-11.133-11.133h-15.366L292.424,275.39
	c11.77-10.213,19.235-25.264,19.235-42.034c0-2.421-0.173-4.802-0.474-7.143l175.926-72.87c5.681-2.354,8.378-8.866,6.025-14.546
	l-0.498-1.202C509.524,125.411,516.731,103.42,508.741,84.131z M247.205,201.138c0.219-0.06,0.439-0.121,0.659-0.177
	c0.35-0.088,0.701-0.167,1.054-0.244c0.23-0.05,0.461-0.098,0.692-0.143c0.342-0.067,0.685-0.129,1.03-0.185
	c0.264-0.042,0.528-0.079,0.793-0.115c0.316-0.043,0.633-0.087,0.953-0.121c0.337-0.036,0.677-0.062,1.015-0.088
	c0.255-0.02,0.509-0.045,0.766-0.058c0.606-0.032,1.215-0.052,1.826-0.052c0.805,0,1.601,0.039,2.394,0.095
	c0.184,0.013,0.367,0.026,0.55,0.042c0.762,0.067,1.517,0.155,2.266,0.272c0.158,0.025,0.313,0.057,0.47,0.085
	c0.607,0.104,1.208,0.226,1.804,0.363c0.229,0.052,0.46,0.101,0.687,0.159c0.645,0.163,1.283,0.346,1.913,0.544
	c0.318,0.101,0.633,0.21,0.947,0.322c0.351,0.122,0.697,0.254,1.043,0.387c0.684,0.266,1.357,0.552,2.018,0.861
	c0.15,0.07,0.301,0.137,0.45,0.208c5.276,2.563,9.779,6.475,13.061,11.284c0.056,0.082,0.112,0.165,0.167,0.248
	c0.387,0.578,0.751,1.171,1.102,1.775c0.193,0.333,0.387,0.666,0.57,1.006c0.156,0.289,0.303,0.582,0.45,0.877
	c0.307,0.62,0.608,1.244,0.878,1.887c0.036,0.083,0.065,0.168,0.099,0.253c0.288,0.7,0.553,1.414,0.796,2.14
	c1.117,3.331,1.731,6.89,1.731,10.592c0,18.416-14.983,33.399-33.399,33.399c-15.96,0-29.334-11.257-32.62-26.245
	c-0.12-0.553-0.228-1.109-0.321-1.666c-0.004-0.026-0.01-0.051-0.013-0.077c-0.096-0.582-0.176-1.167-0.24-1.751
	c-0.002-0.016-0.004-0.031-0.006-0.047c-0.061-0.561-0.106-1.122-0.139-1.683c-0.002-0.046-0.008-0.09-0.01-0.136
	c-0.032-0.599-0.049-1.198-0.049-1.795c0-0.706,0.03-1.405,0.073-2.102c0.013-0.218,0.032-0.435,0.05-0.652
	c0.04-0.491,0.092-0.98,0.154-1.466c0.03-0.235,0.055-0.47,0.09-0.702c0.09-0.613,0.197-1.222,0.321-1.826
	c0.071-0.347,0.157-0.69,0.239-1.033c0.063-0.268,0.129-0.537,0.199-0.803c0.112-0.421,0.229-0.839,0.356-1.252
	c0.028-0.092,0.06-0.183,0.089-0.275c2.119-6.652,6.267-12.406,11.715-16.529c0.116-0.088,0.233-0.175,0.351-0.26
	c0.351-0.258,0.705-0.513,1.067-0.759c0.481-0.324,0.97-0.64,1.47-0.941c0.197-0.119,0.399-0.229,0.598-0.345
	c0.445-0.255,0.895-0.503,1.355-0.74c0.189-0.098,0.379-0.198,0.57-0.293c0.336-0.165,0.675-0.321,1.014-0.473
	c0.21-0.095,0.419-0.195,0.631-0.286c0.425-0.181,0.854-0.348,1.285-0.511c0.405-0.154,0.815-0.296,1.228-0.433
	c0.239-0.08,0.479-0.164,0.72-0.238C246.51,201.327,246.858,201.233,247.205,201.138z M34.201,292.743l-8.521-20.572l22.956-9.509
	l5.46,13.182l3.06,7.39L34.201,292.743z M200.391,235.955L81.988,285l-17.042-41.143l153.538-63.598l2.652,6.402l1.026,2.478
	c-9.938,7.568-16.946,18.189-20.042,30.196c-0.017,0.065-0.035,0.128-0.051,0.193c-0.184,0.724-0.351,1.453-0.505,2.187
	c-0.062,0.292-0.122,0.584-0.18,0.878c-0.118,0.606-0.228,1.212-0.326,1.825c-0.072,0.446-0.135,0.897-0.196,1.348
	c-0.069,0.509-0.139,1.015-0.195,1.527c-0.066,0.603-0.112,1.211-0.158,1.82c-0.029,0.391-0.068,0.779-0.089,1.171
	c-0.056,1.018-0.089,2.041-0.089,3.073C200.329,234.221,200.351,235.088,200.391,235.955z M303.973,205.1
	c-6.489-11.056-16.573-19.424-28.433-23.86c-0.205-0.077-0.409-0.157-0.615-0.232c-0.633-0.229-1.273-0.444-1.916-0.649
	c-0.422-0.136-0.847-0.263-1.274-0.389c-0.548-0.161-1.093-0.325-1.647-0.469c-0.955-0.251-1.917-0.48-2.891-0.679
	c-0.308-0.063-0.621-0.109-0.931-0.167c-0.787-0.147-1.578-0.282-2.376-0.396c-0.382-0.055-0.766-0.1-1.151-0.147
	c-0.773-0.094-1.55-0.17-2.331-0.232c-0.347-0.027-0.692-0.058-1.041-0.079c-1.117-0.067-2.239-0.111-3.372-0.111
	c-1.071,0-2.134,0.038-3.191,0.098c-0.396,0.022-0.79,0.06-1.186,0.09c-0.648,0.051-1.295,0.107-1.936,0.18
	c-0.482,0.055-0.963,0.117-1.443,0.184c-0.548,0.077-1.091,0.164-1.633,0.256c-0.511,0.087-1.023,0.173-1.531,0.274
	c-0.536,0.107-1.064,0.232-1.595,0.354c-0.416,0.096-0.836,0.173-1.25,0.278l-7.436-17.951l0,0L442.743,75.32l25.563,61.714
	L303.973,205.1z M468.53,79.391c8.588,0.462,16.353,5.328,19.64,13.262s1.237,16.863-4.51,23.264l-7.565-18.263L468.53,79.391z"/>
<path d="M245.719,377.823c0.278,0.679,0.623,1.325,1.024,1.926c0.401,0.612,0.868,1.18,1.38,1.692
	c0.512,0.512,1.08,0.981,1.692,1.38c0.601,0.401,1.247,0.746,1.926,1.024c0.668,0.278,1.369,0.501,2.082,0.646
	s1.447,0.212,2.171,0.212s1.458-0.068,2.171-0.212s1.414-0.367,2.082-0.646c0.679-0.278,1.325-0.623,1.926-1.024
	c0.612-0.4,1.18-0.868,1.692-1.38c0.512-0.512,0.98-1.08,1.381-1.692c0.401-0.601,0.746-1.247,1.024-1.926
	c0.278-0.668,0.501-1.368,0.635-2.081c0.145-0.714,0.223-1.448,0.223-2.171c0-0.724-0.078-1.46-0.223-2.171
	c-0.134-0.713-0.356-1.415-0.635-2.082c-0.278-0.679-0.623-1.324-1.024-1.925c-0.401-0.613-0.868-1.181-1.381-1.693
	c-0.512-0.512-1.08-0.98-1.692-1.38c-0.601-0.4-1.247-0.746-1.926-1.024c-0.668-0.278-1.369-0.501-2.082-0.633
	c-1.436-0.291-2.906-0.291-4.342,0c-0.713,0.132-1.414,0.355-2.082,0.633c-0.679,0.278-1.325,0.625-1.926,1.024
	c-0.612,0.401-1.18,0.868-1.692,1.38c-0.512,0.512-0.98,1.08-1.38,1.693c-0.401,0.601-0.746,1.246-1.024,1.925
	c-0.278,0.668-0.501,1.369-0.635,2.082c-0.145,0.713-0.223,1.447-0.223,2.171c0,0.723,0.078,1.458,0.223,2.171
	C245.218,376.454,245.441,377.155,245.719,377.823z"/>
<path d="M278.272,440.091h-11.144v-32.842c0-6.148-4.984-11.133-11.133-11.133s-11.133,4.985-11.133,11.133v32.842H233.74
	c-6.149,0-11.133,4.985-11.133,11.133s4.984,11.133,11.133,11.133h44.532c6.149,0,11.133-4.985,11.133-11.133
	S284.421,440.091,278.272,440.091z"/>
<g>
</g>
<g>
</g>
<g>
</g>
<g>
</g>
<g>
</g>
<g>
</g>
<g>
</g>
<g>
</g>
<g>
</g>
<g>
</g>
<g>
</g>
<g>
</g>
<g>
</g>
<g>
</g>
<g>
</g>
</svg>
